<?xml version="1.0" encoding="UTF-8" standalone="no"?>
<!-- Created with Inkscape (http://www.inkscape.org/) -->

<svg
   version="1.1"
   id="svg1"
   width="205.946"
   height="205.94595"
   viewBox="0 0 205.946 205.94595"
   sodipodi:docname="user_tie-inkscape.svg"
   inkscape:export-filename="../user-tie_icon.png"
   inkscape:export-xdpi="59.666126"
   inkscape:export-ydpi="59.666126"
   inkscape:version="1.4.2 (ebf0e940d0, 2025-05-08)"
   xmlns:inkscape="http://www.inkscape.org/namespaces/inkscape"
   xmlns:sodipodi="http://sodipodi.sourceforge.net/DTD/sodipodi-0.dtd"
   xmlns="http://www.w3.org/2000/svg"
   xmlns:svg="http://www.w3.org/2000/svg">
  <defs
     id="defs1" />
  <sodipodi:namedview
     id="namedview1"
     pagecolor="#ffffff"
     bordercolor="#000000"
     borderopacity="0.25"
     inkscape:showpageshadow="2"
     inkscape:pageopacity="0.0"
     inkscape:pagecheckerboard="0"
     inkscape:deskcolor="#d1d1d1"
     inkscape:export-bgcolor="#ffffff00"
     inkscape:zoom="3.7"
     inkscape:cx="99.72973"
     inkscape:cy="110.27027"
     inkscape:window-width="1920"
     inkscape:window-height="1011"
     inkscape:window-x="0"
     inkscape:window-y="0"
     inkscape:window-maximized="1"
     inkscape:current-layer="svg1" />
  <circle
     style="fill:#0062b8;stroke-linecap:square;stroke-dashoffset:4.94875;paint-order:markers stroke fill;fill-opacity:1"
     id="path4"
     cx="102.97298"
     cy="102.97298"
     r="102.97298" />
  <g
     id="g3"
     transform="matrix(0.8919587,0,0,0.8919587,30.649244,4.6672152)"
     style="fill:#ffffff;fill-opacity:1">
    <path
       id="path3"
       style="fill:#ffffff;fill-opacity:1;stroke:none;stroke-width:1;stroke-linecap:square;stroke-dasharray:none;stroke-dashoffset:4.94875;stroke-opacity:1;paint-order:markers stroke fill"
       d="m 65.762908,110.72756 10.365235,17.4668 -6.71875,27.25586 11.449218,17.54297 v 0.69141 l 0.22461,-0.34571 0.226562,0.34571 v -0.69141 l 11.449219,-17.54297 -6.716797,-27.25586 10.363281,-17.4668 H 81.309783 80.858611 Z"
       inkscape:label="tie" />
    <path
       id="path2"
       style="display:inline;fill:#ffffff;fill-opacity:1;stroke:none;stroke-width:1;stroke-linecap:square;stroke-dasharray:none;stroke-dashoffset:4.94875;stroke-opacity:1;paint-order:markers stroke fill"
       d="m 51.095915,110.72756 c 0,0 -15.591719,0.23618 -27.167969,11.57618 -11.57625,11.34 -12.269531,21.89257 -12.269531,21.89258 l -0.330078,6.58984 -0.638672,12.12305 0.638672,5.79492 c 0,0 -0.200928,3.21448 3.9375,7.46484 4.288204,4.40419 7.953125,4.01758 7.953124,4.01758 h 57.84961 0.03125 57.849609 c 0,0 3.66687,0.38661 7.95508,-4.01758 4.13843,-4.25036 3.9375,-7.46484 3.9375,-7.46484 l 0.63672,-5.79492 -0.63672,-12.12305 -0.33203,-6.58984 c 0,0 -0.69133,-10.55258 -12.26758,-21.89258 -11.57625,-11.34 -27.16992,-11.57618 -27.16992,-11.57618 l -29.988284,60.44922 z"
       inkscape:label="suit" />
    <circle
       style="display:inline;fill:#ffffff;fill-opacity:1;stroke:none;stroke-width:1.3192;stroke-linecap:square;stroke-dasharray:none;stroke-dashoffset:4.94875;stroke-opacity:1;paint-order:markers stroke fill"
       id="path1"
       cx="81.084198"
       cy="60.125626"
       r="39.89259"
       inkscape:label="head" />
  </g>
</svg>
