<?xml version="1.0" encoding="UTF-8" standalone="no"?>
<!-- Uploaded to: SVG Repo, www.svgrepo.com, Generator: SVG Repo Mixer Tools -->

<svg
   width="800"
   height="800"
   viewBox="0 0 24 24"
   fill="none"
   version="1.1"
   id="svg7"
   xmlns="http://www.w3.org/2000/svg"
   xmlns:svg="http://www.w3.org/2000/svg">
  <defs
     id="defs7" />
  <path
     d="m 12.3857,15.9243 c 1.0912,0 1.9759,-0.8846 1.9759,-1.9759 0,-1.0912 -0.8847,-1.9759 -1.9759,-1.9759 -1.0913,0 -1.976,0.8847 -1.976,1.9759 0,1.0913 0.8847,1.9759 1.976,1.9759 z"
     stroke="#ffffffff"
     stroke-width="1.5"
     stroke-linecap="round"
     stroke-linejoin="round"
     id="path1"
     style="stroke:#97005e;stroke-opacity:1" />
  <path
     d="m 17.6516,6.78573 c 0.9552,0.70158 1.7603,1.58721 2.3679,2.60474 0.5979,1.00133 0.9926,2.11033 1.1619,3.26383"
     stroke="#ffffffff"
     stroke-width="1.5"
     stroke-linecap="round"
     stroke-linejoin="round"
     id="path2"
     style="stroke:#97005e;stroke-opacity:1" />
  <path
     d="M 3.58189,12.7105 C 3.74669,11.5369 4.14459,10.4081 4.75217,9.39065 5.35585,8.37968 6.1544,7.49885 7.10135,6.79928"
     stroke="#ffffffff"
     stroke-width="1.5"
     stroke-linecap="round"
     stroke-linejoin="round"
     id="path3"
     style="stroke:#97005e;stroke-opacity:1" />
  <path
     d="m 8.25357,21.8201 c 1.22279,0.6424 2.57853,0.9909 3.95953,1.0178 1.3716,0.0267 2.7307,-0.2645 3.9707,-0.8507"
     stroke="#ffffffff"
     stroke-width="1.5"
     stroke-linecap="round"
     stroke-linejoin="round"
     id="path4"
     style="stroke:#97005e;stroke-opacity:1" />
  <path
     d="m 11.7139,12.0905 -1.17,-0.9999 C 10.0866,10.6976 9.76309,10.1719 9.61846,9.5866 9.47383,9.00126 9.51524,8.3854 9.73695,7.82469 L 12.1009,1.87193 C 12.193,1.6162 12.3748,1.40262 12.6126,1.27086 12.8503,1.1391 13.1278,1.09813 13.3935,1.15557 c 0.2657,0.05744 0.5015,0.20937 0.6635,0.42757 0.1621,0.2182 0.2395,0.48783 0.2178,0.75878 l -0.774,9.97658"
     stroke="#ffffffff"
     stroke-width="1.5"
     stroke-linecap="round"
     stroke-linejoin="round"
     id="path5"
     style="stroke:#97005e;stroke-opacity:1" />
  <path
     d="m 11.1125,15.4594 -0.284,1.5149 c -0.1108,0.5934 -0.4045,1.1373 -0.83985,1.5555 -0.43538,0.4181 -0.99067,0.6896 -1.58807,0.7764 l -6.33375,0.928 C 1.79975,20.281 1.52475,20.2296 1.29261,20.0895 1.06047,19.9493 0.88687,19.73 0.803871,19.4718 0.720872,19.2137 0.734078,18.9342 0.841052,18.6851 0.948025,18.4359 1.14154,18.2339 1.38586,18.1163 l 9.02664,-4.3199"
     stroke="#ffffffff"
     stroke-width="1.5"
     stroke-linecap="round"
     stroke-linejoin="round"
     id="path6"
     style="stroke:#97005e;stroke-opacity:1" />
  <path
     d="m 14.3307,14.2994 1.4539,-0.512 c 0.5689,-0.2005 1.1862,-0.2183 1.7656,-0.0508 0.5795,0.1674 1.0921,0.5117 1.4663,0.9848 l 3.9708,5.0218 c 0.1736,0.208 0.2662,0.4717 0.2607,0.7425 -0.0056,0.2709 -0.1088,0.5306 -0.2908,0.7313 -0.1819,0.2007 -0.4303,0.3289 -0.6993,0.3609 -0.269,0.032 -0.5406,-0.0343 -0.7645,-0.1868 l -8.2547,-5.6567"
     stroke="#ffffffff"
     stroke-width="1.5"
     stroke-linecap="round"
     stroke-linejoin="round"
     id="path7"
     style="stroke:#97005e;stroke-opacity:1" />
</svg>
