<?xml version="1.0" encoding="UTF-8" standalone="no"?>
<!-- Uploaded to: SVG Repo, www.svgrepo.com, Generator: SVG Repo Mixer Tools -->

<svg
   fill="#000000"
   width="800px"
   height="800px"
   viewBox="0 0 100.353 100.353"
   id="Layer_1"
   version="1.1"
   xml:space="preserve"
   sodipodi:docname="location-map-nav.svg"
   inkscape:version="1.4.3 (0d15f75042, 2025-12-25)"
   xmlns:inkscape="http://www.inkscape.org/namespaces/inkscape"
   xmlns:sodipodi="http://sodipodi.sourceforge.net/DTD/sodipodi-0.dtd"
   xmlns="http://www.w3.org/2000/svg"
   xmlns:svg="http://www.w3.org/2000/svg"><defs
   id="defs2" /><sodipodi:namedview
   id="namedview2"
   pagecolor="#ffffff"
   bordercolor="#000000"
   borderopacity="0.25"
   inkscape:showpageshadow="2"
   inkscape:pageopacity="0.0"
   inkscape:pagecheckerboard="0"
   inkscape:deskcolor="#d1d1d1"
   inkscape:zoom="0.99125"
   inkscape:cx="397.98235"
   inkscape:cy="431.77806"
   inkscape:window-width="1920"
   inkscape:window-height="1011"
   inkscape:window-x="0"
   inkscape:window-y="0"
   inkscape:window-maximized="1"
   inkscape:current-layer="g2" />

<g
   id="g2">



<g
   id="g3"
   style="fill:#5b5b5b;fill-opacity:1;stroke:#5b5b5b;stroke-width:0.9085412;stroke-dasharray:none;stroke-opacity:1"
   transform="matrix(1.1045509,0,0,1.1045509,-5.5718407,-4.5512357)"><path
     d="M 58.23,69.992 73.223,45.884 c 0.049,-0.078 0.09,-0.16 0.122,-0.245 2.589,-4.222 3.956,-9.045 3.956,-13.969 0,-14.772 -12.018,-26.79 -26.79,-26.79 -14.772,0 -26.791,12.018 -26.791,26.79 0,4.925 1.369,9.75 3.96,13.975 0.03,0.074 0.065,0.146 0.107,0.216 l 14.455,24.191 c -11.221,1.586 -18.6,6.2 -18.6,11.797 0,6.935 11.785,12.366 26.829,12.366 15.044,0 26.829,-5.432 26.829,-12.366 0.001,-5.623 -7.722,-10.34 -19.07,-11.857 z M 30.373,44.294 C 27.983,40.49 26.72,36.125 26.72,31.67 26.72,18.552 37.392,7.88 50.511,7.88 c 13.118,0 23.79,10.672 23.79,23.79 0,4.457 -1.263,8.822 -3.652,12.624 -0.05,0.08 -0.091,0.163 -0.124,0.249 L 54.685,70.01 c -0.238,0.365 -0.285,0.448 -0.576,0.926 l -4,6.432 -19.602,-32.804 c -0.035,-0.093 -0.08,-0.184 -0.134,-0.27 z m 20.099,46.921 c -14.043,0 -23.829,-4.937 -23.829,-9.366 0,-4.02 7.37,-7.808 17.283,-8.981 l 4.87,8.151 c 0.269,0.449 0.751,0.726 1.274,0.73 0.004,0 0.009,0 0.013,0 0.518,0 1,-0.268 1.274,-0.708 l 5.12,-8.232 c 10.071,1.091 17.823,4.975 17.823,9.04 0.001,4.43 -9.785,9.366 -23.828,9.366 z"
     id="path1"
     style="fill:#5b5b5b;fill-opacity:1;stroke:#5b5b5b;stroke-width:0.9085412;stroke-dasharray:none;stroke-opacity:1" /><path
     d="m 60.213,31.67 c 0,-5.371 -4.37,-9.741 -9.741,-9.741 -5.371,0 -9.741,4.37 -9.741,9.741 0,5.371 4.37,9.741 9.741,9.741 5.371,0 9.741,-4.37 9.741,-9.741 z m -16.482,0 c 0,-3.717 3.024,-6.741 6.741,-6.741 3.717,0 6.741,3.024 6.741,6.741 0,3.717 -3.023,6.741 -6.741,6.741 -3.718,0 -6.741,-3.024 -6.741,-6.741 z"
     id="path2"
     style="fill:#5b5b5b;fill-opacity:1;stroke:#5b5b5b;stroke-width:0.9085412;stroke-dasharray:none;stroke-opacity:1" /></g>

</g>

</svg>
