<?xml version="1.0" encoding="UTF-8" standalone="no"?>
<!-- Uploaded to: SVG Repo, www.svgrepo.com, Generator: SVG Repo Mixer Tools -->

<svg
   fill="#000000"
   width="800px"
   height="800px"
   viewBox="0 0 32 32"
   version="1.1"
   id="svg1"
   sodipodi:docname="phone_WC.svg"
   inkscape:version="1.4.3 (0d15f75042, 2025-12-25)"
   xmlns:inkscape="http://www.inkscape.org/namespaces/inkscape"
   xmlns:sodipodi="http://sodipodi.sourceforge.net/DTD/sodipodi-0.dtd"
   xmlns="http://www.w3.org/2000/svg"
   xmlns:svg="http://www.w3.org/2000/svg"
   xmlns:rdf="http://www.w3.org/1999/02/22-rdf-syntax-ns#"
   xmlns:cc="http://creativecommons.org/ns#"
   xmlns:dc="http://purl.org/dc/elements/1.1/">
  <defs
     id="defs1" />
  <sodipodi:namedview
     id="namedview1"
     pagecolor="#ffffff"
     bordercolor="#000000"
     borderopacity="0.25"
     inkscape:showpageshadow="2"
     inkscape:pageopacity="0.0"
     inkscape:pagecheckerboard="0"
     inkscape:deskcolor="#d1d1d1"
     inkscape:zoom="0.99125"
     inkscape:cx="310.21438"
     inkscape:cy="336.9483"
     inkscape:window-width="1920"
     inkscape:window-height="1011"
     inkscape:window-x="0"
     inkscape:window-y="0"
     inkscape:window-maximized="1"
     inkscape:current-layer="svg1" />
  <title
     id="title1">phone</title>
  <path
     d="m 31.716566,23.855293 c -0.117059,-0.72598 -0.358694,-1.376784 -0.702353,-1.959931 l 0.01396,0.02577 c -0.122428,-0.199751 -0.323254,-0.340438 -0.559519,-0.379099 l -0.0043,-0.001 -9.632118,-1.529282 c -0.03759,-0.0064 -0.08161,-0.0096 -0.12565,-0.0096 -0.222304,0 -0.424204,0.08913 -0.570259,0.234117 v 0 c -0.724906,0.730276 -1.282277,1.628085 -1.606606,2.63114 l -0.01289,0.04726 c -4.311885,-1.761305 -7.666856,-5.11735 -9.3883724,-9.315359 l -0.04081,-0.112763 c 1.0492334,-0.338289 1.9481164,-0.894588 2.6773184,-1.620567 v 0 c 0.146056,-0.146056 0.236266,-0.347955 0.236266,-0.57026 0,-0.04403 -0.0032,-0.08698 -0.01074,-0.129945 l 10e-4,0.0043 -1.528209,-9.633191 C 10.42367,1.2951542 10.28191,1.0932545 10.084306,0.97404783 l -0.0032,-0.002148 C 9.5387481,0.64971966 8.9062008,0.41345411 8.230696,0.29961707 L 8.198478,0.29532134 C 7.8945546,0.21799805 7.545526,0.17396674 7.1857579,0.17396674 c -0.067658,0 -0.1353157,0.001074 -0.2029736,0.004296 h 0.00967 C 3.2358274,0.20511084 0.19874113,3.244345 0.17511458,6.9988195 v 0.00215 C 0.19122359,20.705443 11.295704,31.810998 24.999106,31.826033 h 10e-4 c 3.75877,-0.02256 6.800152,-3.06286 6.823779,-6.818408 v -0.0022 c 0,-0.02685 10e-4,-0.05799 10e-4,-0.09021 0,-0.375877 -0.03974,-0.742089 -0.113837,-1.096487 l 0.0064,0.03437 z m -6.716385,6.361986 C 12.184922,30.202244 1.8010512,19.817299 1.7860161,7.0041892 v -0.00108 C 1.8064208,4.1314149 4.1293408,1.8095688 6.9999673,1.790238 h 0.00215 c 0.015035,0 0.032218,0 0.0494,0 0.2953318,0 0.5842202,0.032218 0.8612953,0.092358 l -0.026848,-0.00537 c 0.3941338,0.064436 0.7463843,0.1739774 1.0760822,0.3232542 l -0.026852,-0.010741 1.3971882,8.8073358 c -0.6744304,0.568111 -1.5078035,0.968688 -2.4238695,1.128704 l -0.031144,0.0043 c -0.3812467,0.06873 -0.6658393,0.397356 -0.6658393,0.793637 0,0.0945 0.016109,0.184717 0.046179,0.268484 l -0.00215,-0.0054 c 1.9040859,5.447063 6.1171298,9.659033 11.4331048,11.523383 l 0.129946,0.03974 c 0.0784,0.02793 0.168608,0.04403 0.26204,0.04403 0.150351,0 0.29211,-0.04081 0.412391,-0.112764 l -0.0032,0.0022 c 0.199752,-0.119206 0.341511,-0.31681 0.383394,-0.548781 l 10e-4,-0.0054 c 0.164313,-0.948284 0.56489,-1.782732 1.139445,-2.465754 l -0.0064,0.0076 8.807336,1.399337 c 0.142833,0.317884 0.255596,0.688392 0.318958,1.075008 l 0.0032,0.02577 c 0.04833,0.227674 0.07625,0.488641 0.07625,0.756049 0,0.02577 0,0.05263 -0.001,0.0784 v -0.0043 c -0.01718,2.872774 -2.340103,5.196768 -5.21073,5.216099 h -0.0022 z"
     id="path1"
     style="fill:#5b5b5b;fill-opacity:1;stroke:none;stroke-width:1.07394;stroke-opacity:1" />
  <metadata
     id="metadata1">
    <rdf:RDF>
      <cc:Work
         rdf:about="">
        <dc:title>phone</dc:title>
      </cc:Work>
    </rdf:RDF>
  </metadata>
</svg>
