<?xml version="1.0" encoding="UTF-8" standalone="no"?>
<!-- Uploaded to: SVG Repo, www.svgrepo.com, Generator: SVG Repo Mixer Tools -->

<svg
   width="800"
   height="800"
   viewBox="0 0 24 24"
   fill="none"
   version="1.1"
   id="svg2"
   xmlns="http://www.w3.org/2000/svg"
   xmlns:svg="http://www.w3.org/2000/svg">
  <defs
     id="defs2" />
  <path
     d="M 1.54725,3 1.99005,2.39467 C 1.79276,2.25035 1.53752,2.21123 1.30606,2.28984 1.07461,2.36845 0.895981,2.55492 0.827386,2.78953 Z M 20.3218,16.8006 20.947,17.2149 20.9612,17.1934 20.974,17.171 Z M 15.6283,6.63173 15.56,7.37862 Z M 0.827386,2.78953 C -1.07936,9.31122 1.97315,15.7882 6.41506,19.2106 c 2.22862,1.7171 4.86674,2.7134 7.47624,2.5143 2.6373,-0.2011 5.1377,-1.6162 7.0557,-4.51 l -1.2503,-0.8286 c -1.6927,2.5538 -3.7956,3.681 -5.9195,3.843 C 11.6253,20.3934 9.34421,19.5738 7.33056,18.0223 3.28792,14.9076 0.563706,9.03667 2.26711,3.21047 Z M 20.974,17.171 c 0.4355,-0.7668 0.689,-1.8105 0.7572,-2.9138 0.0687,-1.1139 -0.0475,-2.3478 -0.4038,-3.5209 C 20.612,8.38048 18.881,6.17606 15.6966,5.88485 L 15.56,7.37862 c 2.3976,0.21925 3.7353,1.82815 4.3321,3.79358 0.2999,0.9875 0.4007,2.0412 0.3419,2.9926 -0.0594,0.9619 -0.2779,1.761 -0.5643,2.2654 z M 15.6966,5.88485 C 11.5071,5.50173 9.0521,5.32481 7.1289,4.88915 5.2672,4.46742 3.91574,3.80331 1.99005,2.39467 L 1.10445,3.60533 C 3.15057,5.10207 4.68763,5.87414 6.7975,6.35208 8.84588,6.8161 11.4455,7.00235 15.56,7.37862 Z"
     fill="#ffffff"
     id="path1"
     style="fill:#0062b8;fill-opacity:1;stroke:none;stroke-opacity:1" />
  <path
     d="m 10,11 c 4.2059,0.8 7.5314,2.7732 13,8"
     stroke="#ffffff"
     stroke-width="1.5"
     stroke-linecap="round"
     id="path2"
     style="fill:none;fill-opacity:1;stroke:#0062b8;stroke-opacity:1" />
</svg>
