<?xml version="1.0" encoding="UTF-8" standalone="no"?>
<svg
   width="400.09436"
   height="142.18517"
   display="block"
   version="1.1"
   id="svg3"
   xmlns="http://www.w3.org/2000/svg"
   xmlns:svg="http://www.w3.org/2000/svg">
  <defs
     id="defs3" />
  <path
     d="m 0.06101225,6.8389806 c 0,6.7510004 0.003,6.8060004 0.421,6.8060004 0.394,0 4.28000005,-0.723 8.72100005,-1.622 1.0609997,-0.215 2.6379997,-0.532 3.5039997,-0.705 4.044,-0.807 4.969,-1.005 8.583,-1.8400004 2.123,-0.49 4.18,-0.947 4.571,-1.014 0.391,-0.067 1.945,-0.398 3.453,-0.735 6.389,-1.428 7.11,-1.58 11.478,-2.419 2.037,-0.392 4.77,-0.936 7.618,-1.517 3.598,-0.734 8.584,-1.559 10.543,-1.744 1.163,-0.111 2.175,-0.238 2.248,-0.284 0.276,-0.17 4.06,-0.703 6.664,-0.939 1.548,-0.14 2.845,-0.358 3.047,-0.512 0.292,-0.221 -5.765,-0.268 -35.249,-0.274 l -35.60199975,-0.006 v 6.805 m 96.29999975,-6.523 c 0.202,0.191 1.337,0.358 3.548,0.522 1.786998,0.132 4.163998,0.361 5.281998,0.509 1.117,0.148 2.899,0.372 3.961,0.496 3.367,0.396 9.935,1.256 13.509,1.767 1.9,0.272 4.779,0.676 6.399,0.897 6.855,0.936 8.895,1.279 13.307,2.238 1.005,0.219 2.637,0.537 3.625,0.708 0.989,0.17 3.274,0.662 5.079,1.093 1.805,0.43 3.647,0.843 4.094,0.918 0.447,0.074 2.504,0.5370004 4.571,1.0280004 3.633,0.865 5.771,1.318 10.056,2.133 1.117,0.213 2.671,0.527 3.453,0.698 2.872,0.629 4.718,0.642 6.209,0.045 2.074,-0.829 3.128,-0.942 8.801,-0.94 5.854,0.002 12.54,0.531 20.338,1.609 6.136,0.848 6.622,0.889 9.105,0.755 2.749,-0.147 6.072,-0.569 13.038,-1.653 4.352,-0.677 6.233,-1.009 10.361,-1.828 0.894,-0.177 3.088,-0.587 4.876,-0.91 3.223,-0.5830004 4.327,-0.7990004 8.837,-1.7240004 1.285,-0.264 3.57,-0.725 5.078,-1.025 1.509,-0.3 3.794,-0.762 5.079,-1.027 5.294,-1.093 16.833,-3.182 20.112,-3.641 1.061,-0.149 2.798,-0.41 3.86,-0.581 1.061,-0.17 2.661,-0.406 3.555,-0.524 0.894,-0.118 2.448,-0.349 3.453,-0.515 1.006,-0.165 2.971,-0.407 4.368,-0.536 8.32,-0.774 7.855,-0.777 -100.348,-0.786 -88.567,-0.007 -103.859998,0.034 -103.605998,0.274 m 233.620998,0.013 c 0.192,0.191 1.123,0.375 2.634,0.522 1.285,0.124 3.113,0.354 4.063,0.511 3.131,0.517 9.076,1.442 10.36,1.612 5.14,0.681 13.78,2.229 17.026,3.052 5.912,1.497 9.285,2.402 12.126,3.253 2.07,0.62 6.416,1.7260004 10.739,2.7340004 0.991,0.231 2.753,0.554 3.916,0.717 4.437,0.623 7.311,2.113 8.525,4.419 0.638,1.211 0.69,0.581 0.69,-8.2780004 v -8.837 h -35.188 c -30.773,0 -35.151,0.037 -34.891,0.295 M 95.541012,13.378981 c -7.311,0.438 -11.843,0.852 -19.502,1.78 -1.397,0.169 -3.728,0.451 -5.181,0.625 -3.553,0.426 -7.264,1.042 -9.867,1.636 -1.181,0.27 -2.287,0.491 -2.458,0.491 -0.401,0 -3.789,1.008 -7.279,2.164 -8.73,2.894 -15.229,8.346 -17.945,15.055 -3.318,8.199 -1.819,27.801 3.656,47.789 3.445,12.576 5.972,19.025999 9.712,24.788999 1.979,3.049 2.23,3.133 4.745,1.592 3.499,-2.147 6.561,-2.587 12.628,-1.818 3.637,0.46 9.15,0.57 11.265,0.224 7.534,-1.234 9.626,-9.405999 3.88,-15.157999 -2.859,-2.862 -6.642,-4.278 -12.672,-4.744 -3.37,-0.261 -3.821,-0.704 -2.25,-2.214 2.149,-2.064 4.68,-2.776 9.274,-2.605 4.308,0.159 4.45,-0.012 2.786,-3.386 -2.958,-5.999 -6.73,-8.45 -13.017,-8.459 -3.24,-0.005 -3.844,-0.702 -1.924,-2.223 2.966,-2.349 6.9,-2.665 12.584,-1.01 3.219,0.937 3.65,0.556 2.61,-2.31 -2.2,-6.061 -7.089,-9.997 -13.572,-10.927 -3.119,-0.447 -3.276,-1.318 -0.485,-2.694 2.917,-1.437 5.932,-1.621 10.363,-0.631 5.131,1.146 4.838,1.426 4.975,-4.76 0.073,-3.301 0.178,-4.735 0.373,-5.076 0.307,-0.54 3.457,-2.591 9.073,-5.909 0.894,-0.528 2.403,-1.448 3.352,-2.045 0.95,-0.596 2.687,-1.652 3.86,-2.345 a 433.525,433.525 0 0 0 4.876,-2.945 c 12.771998,-7.842 11.193998,-7.398 17.470998,-4.92 14.153,5.588 22.495,14.901 23.597,26.346 0.293,3.035 0.088,8.095 -0.412,10.17 -0.215,0.894 -0.457,2.037 -0.537,2.54 -0.299,1.873 -1.887,6.284 -3.634,10.099 -0.626,1.365 -1.137,2.54 -1.137,2.611 0,0.944 -8.163,13.822 -11.568,18.249 -3.069,3.992 -2.943,4.284 1.551,3.586 3.662,-0.569 7.018,-0.544 11.885,0.092 5.187,0.676 4.818,0.713 6.277,-0.628 1.347,-1.238 1.928,-1.338 2.672,-0.459 0.682,0.806 0.449,1.342 -3.594,8.297999 -4.618,7.943 -4.468,7.785 -6.869,7.234 a 26.526,26.526 0 0 0 -2.487,-0.426 52.014,52.014 0 0 1 -2.844,-0.43 c -7.566,-1.369 -13.76,0.438 -19.013,5.547 -2.794,2.718 -3.497,2.765 -3.051,0.201 0.219,-1.258 0.403,-1.93 1.677,-6.133 1.397,-4.608 5.246,-14.396999 7.036,-17.893999 0.234,-0.457 1.382,-3.062 2.551,-5.79 a 575.063,575.063 0 0 1 2.755,-6.35 c 1.069,-2.36 0.861,-3.116 -1.257,-4.573 -2.124,-1.461 -4.857,-2.39 -8.169,-2.779 -2.548,-0.298 -7.496,1.108 -10.769,3.06 -2.968998,1.772 -2.739998,0.93 -2.745998,10.081 -0.007,10.536 -0.304,12.897 -2.229,17.743999 -2.585,6.507 -8.147,12.324 -13.91,14.549 -6.321,2.441 -11.552,2.174 -22.713,-1.158 -2.677,-0.8 -4.454,-0.894 -4.577,-0.245 -0.307,1.615 9.598,7.303 15.298,8.787 0.782,0.204 1.582,0.451 1.777,0.551 1.024,0.523 10.903,2.283 15.085,2.688 1.899,0.184 4.291,0.423 5.316,0.532 2.422,0.257 7.844998,0.253 10.369998,-0.007 1.093,-0.113 3.388,-0.343 5.1,-0.51 1.711,-0.167 3.677,-0.435 4.367,-0.597 0.691,-0.161 2.258,-0.486 3.482,-0.72 19.026,-3.648 36.043,-17.191 45.562,-36.261999 1.985,-3.978 6.757,-14.601 6.757,-15.043 0,-0.058 0.511,-1.405 1.135,-2.993 6.283,-15.995 7.224,-27.57 2.935,-36.138 -3.967,-7.926 -14.552,-14.711 -29.123,-18.668 a 518.11,518.11 0 0 1 -4.302,-1.192 87.285,87.285 0 0 0 -3.961,-1.005 c -5.145,-1.147 -6.484,-1.422 -7.517,-1.544 a 112.53,112.53 0 0 1 -3.453,-0.511 c -4.445,-0.72 -7.276,-0.868 -17.369,-0.912 -5.475,-0.024 -10.548998,-0.008 -11.274998,0.036 m 190.045998,0.08 c -9.039,0.817 -17.005,2.344 -26.003,4.984 -24.891,7.302 -34.104,18.025 -31.486,36.644 0.597,4.24 3.608,15.024 4.885,17.493 0.161,0.312 0.608,1.418 0.993,2.457 5.427,14.649 13.316,28.369999 19.689,34.243999 1.15,1.06 1.71,1.095 3.077,0.187 5.143,-3.413 10.322,-2.613 20.418,3.154 6.628,3.785 7.04,3.919 8.742,2.835 2.451,-1.561 4.253,-5.041 5.226,-10.09 0.524,-2.718 0.618,-45.355999 0.102,-45.993999 -0.473,-0.584 -1.873,-0.766 -7.269,-0.948 -7.646,-0.258 -11.417,0.878 -15.806,4.76 -1.341,1.186 -1.422,1.212 -1.856,0.593 -1.077,-1.538 0.664,-6.469 3.425,-9.706 4.006,-4.697 9.703,-7.002 19.85,-8.033 1.996,-0.203 1.965,-0.108 2.042,-6.309 0.082,-6.667 -0.181,-6.246 4.098,-6.576 7.154,-0.55 13.133,-2.135 17.023,-4.513 0.933,-0.57 2.108,-1.283 2.611,-1.584 0.808,-0.483 3.903,-2.695 9.671,-6.911 2.238,-1.636 2.672,-1.668 5.667,-0.416 5.428,2.269 11.363,3.187 16.583,2.564 4.066,-0.485 5.549,-1.111 4.567,-1.926 -0.846,-0.702 -8.182,-2.79 -11.501,-3.274 -0.838,-0.122 -2.803,-0.441 -4.367,-0.708 -14.379,-2.461 -39.435,-3.917 -50.381,-2.927 m -101.26,3.225 c -1.45,0.366 -1.465,0.938 -0.099,3.677 2.156,4.323 4.62,11.823 7.091,21.583 1.174,4.637 2.028,7.626 2.25,7.871 1.403,1.55 19.255,1.341 20.953,-0.245 1.498,-1.399 2.093,-8.918 1.493,-18.861 -0.131,-2.178 -0.313,-5.292 -0.403,-6.92 -0.271,-4.891 0.373,-4.52 -10.066,-5.786 -1.341,-0.162 -3.58,-0.438 -4.977,-0.613 -4.586,-0.572 -14.981,-1.025 -16.242,-0.706 m 172.822,6.864 c -0.172,0.196 -0.609,0.95 -0.97,1.676 -4.76,9.561 -15.39,13.329 -26.611,9.433 -4.466,-1.55 -4.266,-1.791 -4.266,5.109 v 5.338 l 0.536,0.421 c 0.519,0.409 0.756,0.421 8.278,0.425 10.86,0.007 10.391,-0.217 8.981,4.294 a 744.734,744.734 0 0 0 -1.452,4.705 c -0.503,1.65 -0.913,2.604 -1.309,3.048 l -0.576,0.645 -6.67,0.102 c -6.89,0.105 -7.433,0.173 -7.659,0.965 -0.056,0.195 -0.157,5.109 -0.224,10.919 -0.143,12.333 -0.35,16.346 -1.059,20.518 -2.529,14.884999 -9.618,21.354999 -29.928,27.316999 a 426.46,426.46 0 0 0 -6.703,2.037 180.914,180.914 0 0 1 -5.485,1.632 c -5.232,1.428 -5.807,1.794 -4.255,2.712 1.512,0.893 10.624,3.339 14.107,3.787 6.624,0.852 13.893,1.189 17.868,0.83 1.458,-0.132 3.793,-0.336 5.19,-0.454 28.153,-2.372 42.274,-14.39 49.977,-42.532999 0.244,-0.894 0.709,-2.475 1.033,-3.515 0.324,-1.039 0.589,-2.056 0.589,-2.259 0,-0.204 0.142,-0.771 0.314,-1.26 0.173,-0.489 0.533,-1.94 0.799,-3.225 0.267,-1.285 0.805,-3.89 1.197,-5.79 3.206,-15.538 3.208,-30.538 0.005,-36.918 -2.764,-5.507 -10.117,-11.762 -11.707,-9.959 M 0.06101225,118.83098 v 84.352 H 15.297012 c 8.38,0 15.233,-0.069 15.23,-0.153 -0.004,-0.083 -0.141,-0.329 -0.305,-0.546 -0.86,-1.137 -0.196,-2.729 1.329,-3.186 1.724,-0.516 1.623,0.296 1.623,-13.091 0,-13.264 0.117,-12.292 -1.522,-12.705 -2.246,-0.565 -2.505,-3.474 -0.357,-4.015 1.021,-0.257 6.276,-0.285 8.176,-0.043 1.756,0.223 1.822,0.281 3.228,2.792 1.098,1.963 4.568,7.513 9.287,14.854 2.957,4.601 2.902,4.699 2.902,-5.136 0,-8.107 0.033,-7.949 -1.77,-8.566 -2.246,-0.769 -2.602,-2.914 -0.621,-3.735 1.108,-0.458 9.077,-0.4 9.798,0.073 1.513,0.991 1.14,2.732 -0.77,3.589 -1.76,0.789 -1.626,-0.341 -1.738,14.657 l -0.102,13.534 -0.56,0.788 -0.561,0.787 6.331,0.054 c 6.82,0.058 6.748,0.065 6.115,-0.613 -0.946,-1.014 -0.669,-2.511 0.55,-2.967 2.45,-0.918 2.244,0.316 2.244,-13.45 0,-12.901 0.03,-12.582 -1.189,-12.582 -2.044,0 -2.972,-2.245 -1.454,-3.522 1.052,-0.885 21.911,-1.141 23.218,-0.284 1.988,1.303 1.856,7.611 -0.18,8.577 -1.97,0.934 -3.464,-0.077 -3.826,-2.591 -0.081,-0.561 -0.34,-1.202 -0.617,-1.523 l -0.477,-0.555 -3.433,-0.064 c -3.17,-0.059 -3.471,-0.033 -3.928,0.338 l -0.496,0.401 v 4.277 c 0,5.227 -0.114,5.002 2.526,5.002 2.147,0 2.399,-0.16 3.045,-1.932 0.909,-2.494 3.846,-2.922 4.476,-0.652 0.26,0.935 0.271,8.177 0.015,9.288 -0.581,2.514 -3.505,2.345 -4.478,-0.259 -0.681,-1.823 -0.764,-1.874 -3.051,-1.874 -2.632,0 -2.516,-0.189 -2.604,4.218 -0.135,6.712 -0.415,6.346 4.846,6.346 5.22,0 5.252,-0.015 5.59,-2.535 0.327,-2.434 1.859,-3.609 3.849,-2.952 1.303,0.429 1.429,0.85 1.429,4.766 0,3.191 -0.036,3.531 -0.454,4.326 l -0.454,0.864 h 9.823998 l -0.649,-0.67 c -1.203,-1.242 -0.673,-2.691 1.166,-3.187 1.918,-0.516 1.89,-0.295 1.805,-14.122 -0.074,-11.95 0.023,-11.276 -1.698,-11.776 -2.188,-0.636 -2.596,-2.971 -0.662,-3.787 1.29,-0.544 15.387,-0.397 18.037,0.188 8.662,1.914 10.666,11.84 3.272,16.209 -0.931,0.549 -0.907,0.785 0.209,2.058 1.157,1.32 2.622,4.213 3.128,6.172 0.793,3.077 2.132,4.56 4.544,5.034 2.209,0.435 2.986,1.853 1.749,3.189 -0.28,0.301 -0.508,0.58 -0.508,0.62 0,0.039 1.609,0.072 3.576,0.072 h 3.576 l -0.63,-0.718 c -1.11,-1.265 -0.701,-2.388 1.164,-3.197 2.01,-0.872 1.862,0.173 1.862,-13.103 v -11.645 l -0.499,-0.498 c -0.274,-0.275 -0.694,-0.499 -0.934,-0.499 -1.907,0 -2.869,-2.179 -1.522,-3.445 1.059,-0.995 13.519,-1.149 18.394,-0.228 9.534,1.802 14.597,9.559 13.017,19.942 -1.047,6.887 -6.361,12.317 -12.685,12.962 -1.102,0.112 -2.054,0.255 -2.116,0.317 -0.061,0.061 9.754,0.109 21.811,0.105 20.945,-0.006 21.904,-0.023 21.496,-0.364 -1.497,-1.252 -1.116,-2.8 0.842,-3.417 1.978,-0.623 1.82,0.515 1.82,-13.113 v -11.982 l -0.445,-0.361 c -0.245,-0.198 -0.823,-0.421 -1.284,-0.494 -2.076,-0.332 -2.563,-2.74 -0.754,-3.729 0.81,-0.442 20.725,-0.677 22.266,-0.262 1.362,0.366 1.536,0.825 1.618,4.253 0.102,4.242 -0.361,5.301 -2.317,5.301 -1.363,0 -2.003,-0.671 -2.645,-2.777 -0.786,-2.575 -0.653,-2.505 -4.751,-2.505 -4.24,0 -3.867,-0.487 -3.867,5.043 0,5.228 -0.026,5.168 2.264,5.278 2.476,0.118 3.025,-0.172 3.576,-1.89 0.806,-2.51 3.23,-3.022 4.137,-0.873 0.515,1.222 0.399,9.727 -0.144,10.457 -1.219,1.643 -3.434,0.963 -3.956,-1.215 -0.413,-1.722 -0.818,-1.97 -3.222,-1.97 -2.814,0 -2.695,-0.244 -2.615,5.358 0.071,5.023 0.006,4.842 1.908,5.336 1.995,0.518 2.56,1.533 1.734,3.117 l -0.425,0.816 14.573,-0.005 14.572,-0.006 -2.122,-1.032 c -6.663,-3.242 -9.861,-10.437 -8.657,-19.475 1.222,-9.173 9.194,-15.051 18.736,-13.816 16.336,2.116 19.803,25.826 4.894,33.466 l -1.677,0.86 9.904,0.004 9.903,0.004 -0.406,-0.759 c -0.773,-1.442 -0.292,-2.672 1.222,-3.126 0.437,-0.131 1.003,-0.46 1.259,-0.732 l 0.464,-0.494 0.062,-11.005 c 0.077,-13.658 0.12,-13.317 -1.743,-13.615 -1.078,-0.172 -1.671,-0.898 -1.671,-2.044 0,-1.944 0.764,-2.193 6.407,-2.091 5.041,0.092 4.708,-0.074 6.65,3.308 a 116.554,116.554 0 0 0 2.572,4.25 c 0.649,1.006 2.01,3.154 3.024,4.774 3.425,5.473 5.607,8.735 5.844,8.735 0.423,0 0.49,-1.164 0.487,-8.405 -0.003,-8.214 0.043,-7.971 -1.625,-8.513 -2.052,-0.666 -2.621,-2.032 -1.368,-3.284 1.024,-1.023 9.566,-1.288 10.744,-0.334 1.195,0.968 0.639,2.671 -1.13,3.465 -1.744,0.782 -1.629,-0.195 -1.742,14.853 l -0.102,13.525 -0.569,0.746 -0.569,0.746 h 19.131 l -0.616,-0.603 c -1.237,-1.208 -0.707,-2.643 1.17,-3.17 2.028,-0.569 1.87,0.547 1.87,-13.201 v -12.053 l -0.452,-0.317 c -0.527,-0.369 -2.424,-0.425 -3.358,-0.1 -0.717,0.25 -0.973,0.775 -1.25,2.56 -0.349,2.253 -1.142,3.115 -2.863,3.115 -2.108,0 -2.438,-0.698 -2.437,-5.159 10e-4,-3.644 0.224,-4.42 1.364,-4.739 0.311,-0.086 6.191,-0.157 13.068,-0.157 15.434,0 14.258,-0.374 14.382,4.572 0.109,4.354 -0.416,5.483 -2.552,5.483 -1.604,0 -2.084,-0.544 -2.683,-3.047 -0.606,-2.533 -0.921,-2.844 -2.879,-2.844 -1.242,0 -1.484,0.064 -1.925,0.505 l -0.505,0.505 0.057,11.769 0.057,11.77 0.483,0.513 c 0.265,0.283 0.768,0.575 1.117,0.65 1.858,0.4 2.857,2.632 1.541,3.445 -0.709,0.438 0.536,0.501 9.505,0.482 8.781,-0.019 9.604,-0.049 8.685,-0.313 -3.032,-0.869 -3.147,-1.085 -3.148,-5.902 -10e-4,-4.451 0.115,-4.728 2.053,-4.888 2.374,-0.197 3.132,0.576 3.397,3.469 0.269,2.923 1.208,3.59 4.684,3.325 2.929,-0.224 4.395,-1.114 4.895,-2.974 0.68,-2.524 -0.824,-4.122 -6.695,-7.117 -5.998,-3.06 -8.165,-6.404 -7.42,-11.45 0.886,-5.999 6.506,-9.251 14.504,-8.395 5.974,0.639 6.789,1.26 6.897,5.245 0.118,4.338 -0.236,5.367 -1.927,5.593 -2.025,0.272 -2.98,-0.639 -3.471,-3.311 -0.474,-2.583 -0.717,-2.8 -3.225,-2.891 -3.078,-0.111 -4.595,0.714 -5.158,2.806 -0.707,2.622 0.403,3.88 5.81,6.591 3.939,1.975 6.215,3.532 7.278,4.979 3.849,5.244 0.803,12.949 -5.879,14.874 -1.18,0.34 -0.696,0.351 15.389,0.365 l 16.607,0.015 v -82.066 c 0,-85.651999 0.022,-83.394999 -0.782,-81.172999 -0.324,0.897 -1.414,1.966 -3.179,3.117 -4.778,3.117 -7.782,8.036 -10.384,17.003 -0.519,1.788 -1.118,3.845 -1.33,4.571 -0.213,0.727 -1.386,5.252 -2.608,10.056 -1.222,4.805 -2.504,9.787 -2.85,11.072 a 898.416,898.416 0 0 0 -1.003,3.758 c -1.51,5.726 -5.35,15.014999 -8.228,19.905999 -9.432,16.027 -28.106,28.012 -48.255,30.971 -0.726,0.106 -2.554,0.388 -4.063,0.627 -5.275,0.833 -20.534,0.773 -25.674,-0.102 -0.907,-0.154 -2.38,-0.386 -3.274,-0.515 -3.093,-0.446 -10.153,-2.209 -14.221,-3.552 -12.121,-4.001 -21.347,-9.698 -29.93,-18.48 -6.956,-7.117 -13.488,-17.541 -18.783,-29.971999 -1.653,-3.883 -5.603,-15.329 -7.149,-20.721 -1.509,-5.263 -4.113,-10.643 -5.863,-12.115 l -0.64,-0.539 -3.962,0.126 c -3.51,0.111 -8.428,-0.025 -14.433,-0.398 -3.636,-0.226 -5.179,2.742 -9.041,17.395 -2.402,9.113 -3.135,11.203 -5.884,16.76 -6.387,12.911999 -12.754,22.824999 -18.771,29.223999 -1.072,1.14 -2.308,2.51 -2.745,3.044 -7.004,8.547 -23.646,17.44 -35.973,19.223 a 114.4,114.4 0 0 0 -3.25,0.527 c -1.683,0.303 -6.554,0.756 -12.189,1.133 -3.619,0.242 -14.112998,0.101 -16.048998,-0.217 -0.67,-0.11 -2.407,-0.3 -3.86,-0.424 -9.796,-0.831 -21.508,-4.113 -30.371,-8.511 -13.693,-6.795 -18.578,-12.515 -25.431,-29.779 a 525.473,525.473 0 0 0 -1.892,-4.671999 c -3.3,-8.03 -8.38,-24.04 -11.314,-35.653 -1.992,-7.885 -3.188,-10.165 -8.3069997,-15.846 -4.832,-5.362 -6.657,-7.988 -7.47800005,-10.765 -0.87,-2.94 -0.834,-6.536 -0.834,82.634999 M 309.15201,35.176981 c -0.782,0.202 -1.858,0.428 -2.391,0.502 -0.568,0.079 -1.198,0.333 -1.524,0.612 l -0.554,0.478 -0.106,25.157 c -0.095,22.665 -0.141,25.429 -0.47,27.9 -0.731,5.5 -1.613,8.881 -3.349,12.835999 -0.768,1.752 -3.692,5.848 -5.938,8.321 -3.255,3.582 -2.834,4.113 1.586,2.004 9.516,-4.541 14.215,-11.138 15.689,-22.026999 0.608,-4.491 0.642,-55.304 0.037,-55.851 -0.461,-0.418 -1.16,-0.402 -2.98,0.068 m -209.926998,0.178 c -0.428,0.428 -0.434,0.532 -0.434,8.654 v 8.22 l 0.628,0.715 c 2.266998,2.582 9.122998,5.394 13.150998,5.394 4.5,0 10.911,-2.952 12.318,-5.672 1.012,-1.959 -3.52,-8.424 -8.11,-11.568 -5.794,-3.969 -15.991,-7.306 -17.552998,-5.743 m -6.707,1.363 c -2.394,1.198 -2.141,-2.106 -2.268,29.543 -0.062,15.139 -0.172,27.709 -0.245,27.932 -0.074,0.224 -0.331,1.321 -0.571,2.438 -0.898,4.166999 -3.029,7.721999 -6.101,10.172999 -2.485,1.982 -1.819,2.86 1.713,2.257 5.724,-0.977 9.43,-5.551 10.398,-12.835999 0.37,-2.785 0.455,-59.159 0.09,-59.841 -0.324,-0.605 -1.371,-0.489 -3.016,0.334 m 32.326998,20.094 c -0.363,0.158 -1.048,0.553 -1.523,0.879 -5.511,3.778 -13.322,4.064 -20.239,0.741 -4.176998,-2.007 -3.986998,-2.336 -3.986998,6.914 0,8.984 -0.068,8.827 3.184998,7.399 6.488,-2.847 12.864,-2.745 19.75,0.317 2.298,1.022 2.755,0.519 3.874,-4.275 1.021,-4.376 1.267,-7.168 0.858,-9.733 -0.399,-2.507 -0.646,-2.795 -1.918,-2.242 m -8.075,116.872999 c -0.859,0.16 -0.914,0.494 -0.914,5.534 0,5.69 -0.084,5.477 2.149,5.477 4.373,0 6.896,-4.347 4.846,-8.349 -0.772,-1.509 -4.205,-3.011 -6.081,-2.662 m 37.379,0.107 c -0.594,0.45 -0.643,24.264 -0.05,24.856 0.942,0.942 6.66,-0.447 8.432,-2.048 4.629,-4.181 4.705,-16.613 0.127,-20.632 -1.926,-1.692 -7.325,-3.072 -8.509,-2.176 m 94.819,0.132 c -7.638,3.467 -7.652,21.525 -0.02,24.989 4.866,2.208 9.55,-2.273 10.336,-9.886 1.054,-10.216 -4.185,-17.885 -10.316,-15.103 m -210.466998,7.471 c -0.081,0.196 -0.146,3.967 -0.146,8.38 0,9.014 -0.048,8.716 1.487,9.372 1.944,0.832 2.442,2.1 1.339,3.411 l -0.526,0.625 h 13.12 l -0.736,-0.762 c -0.405,-0.419 -1.46,-1.95 -2.345,-3.403 a 280.04,280.04 0 0 0 -3.046,-4.875 c -0.79,-1.229 -2.048,-3.195 -2.795,-4.368 -5.763,-9.054 -5.966,-9.322 -6.352,-8.38 m 246.103998,-0.22 c -0.266,0.266 -0.143,16.8 0.127,17.156 0.138,0.18 0.809,0.61 1.492,0.955 0.683,0.344 1.299,0.776 1.369,0.958 0.25,0.653 0.12,1.674 -0.28,2.182 -0.223,0.284 -0.406,0.57 -0.406,0.636 0,0.067 2.891,0.121 6.425,0.121 h 6.425 l -0.787,-0.866 c -0.434,-0.476 -1.108,-1.434 -1.499,-2.128 -0.391,-0.695 -1.778,-2.933 -3.083,-4.975 a 2515.477,2515.477 0 0 1 -3.758,-5.9 c -4.96,-7.827 -5.546,-8.619 -6.025,-8.139 m -168.298,8.307 c -0.441,0.309 -0.451,0.407 -0.451,4.482 0,4.466 0.06,4.773 1.008,5.128 l 1.236,0.463 c 1.203,0.45 1.473,1.937 0.539,2.967 -0.613,0.674 -0.626,0.672 4.957,0.614 5.025,-0.053 5.141,-0.064 4.43,-0.4 -1.935,-0.914 -4.108,-3.575 -4.831,-5.916 -1.819,-5.89 -4.65,-8.906 -6.888,-7.338"
     fill="none"
     id="path1" />
  <path
     d="m 70.912012,0.3139806 c -0.202,0.154 -1.499,0.372 -3.047,0.512 -2.604,0.236 -6.388,0.769 -6.664,0.939 -0.073,0.046 -1.085,0.173 -2.248,0.284 -1.959,0.185 -6.945,1.01 -10.543,1.744 a 740.814,740.814 0 0 1 -7.618,1.517 c -4.368,0.839 -5.089,0.991 -11.478,2.419 -1.508,0.337 -3.062,0.668 -3.453,0.735 -0.391,0.067 -2.448,0.524 -4.571,1.014 -2.123,0.49 -4.545,1.0300004 -5.383,1.1980004 l -3.149,0.632 c -0.894,0.178 -2.494,0.5 -3.5549997,0.715 -4.441,0.899 -8.32700005,1.622 -8.72100005,1.622 -0.544,0 -0.678,20.467 -0.139,21.236 0.155,0.222 0.403,0.813 0.552,1.315 0.82100005,2.777 2.64600005,5.403 7.47800005,10.765 5.1189997,5.681 6.3149997,7.961 8.3069997,15.846 2.593,10.263 4.092,15.16 9.112,29.761 a 129.952,129.952 0 0 0 2.202,5.892 525.473,525.473 0 0 1 1.892,4.671999 c 6.853,17.264 11.738,22.984 25.431,29.779 8.863,4.398 20.575,7.68 30.371,8.511 1.453,0.124 3.19,0.314 3.86,0.424 1.936,0.318 12.429998,0.459 16.048998,0.217 5.635,-0.377 10.506,-0.83 12.189,-1.133 a 114.4,114.4 0 0 1 3.25,-0.527 c 6.54,-0.946 15.097,-4.032 21.485,-7.747 4.4,-2.559 12.325,-8.837 14.488,-11.476 0.437,-0.534 1.673,-1.904 2.745,-3.044 6.017,-6.399 12.384,-16.312 18.771,-29.223999 2.749,-5.557 3.482,-7.647 5.884,-16.76 2.135,-8.099 2.892,-10.399 4.631,-14.056 1.545,-3.25 1.871,-3.497 4.41,-3.339 6.005,0.373 10.923,0.509 14.433,0.398 l 3.962,-0.126 0.64,0.539 c 1.75,1.472 4.354,6.852 5.863,12.115 1.546,5.392 5.496,16.838 7.149,20.721 5.295,12.430999 11.827,22.854999 18.783,29.971999 8.583,8.782 17.809,14.479 29.93,18.48 4.068,1.343 11.128,3.106 14.221,3.552 0.894,0.129 2.367,0.361 3.274,0.515 5.14,0.875 20.399,0.935 25.674,0.102 1.509,-0.239 3.337,-0.521 4.063,-0.627 20.149,-2.959 38.823,-14.944 48.255,-30.971 2.878,-4.891 6.718,-14.179999 8.228,-19.905999 0.206,-0.782 0.657,-2.473 1.003,-3.758 0.346,-1.285 1.628,-6.267 2.85,-11.072 1.222,-4.804 2.395,-9.329 2.608,-10.056 0.212,-0.726 0.811,-2.783 1.33,-4.571 2.602,-8.967 5.606,-13.886 10.384,-17.003 1.721,-1.123 2.804,-2.169 3.162,-3.056 0.147,-0.364 0.387,-0.735 0.533,-0.824 0.42,-0.257 0.388,-21.125 -0.033,-21.625 -2.901,-3.451 -4.224,-4.167 -8.916,-4.826 a 53.954,53.954 0 0 1 -3.916,-0.717 c -4.323,-1.008 -8.669,-2.1140004 -10.739,-2.7340004 -2.841,-0.851 -6.214,-1.756 -12.126,-3.253 -3.246,-0.823 -11.886,-2.371 -17.026,-3.052 -1.284,-0.17 -7.229,-1.095 -10.36,-1.612 a 75.73,75.73 0 0 0 -4.059,-0.512 c -1.47,-0.143 -2.451,-0.336 -2.657,-0.522 -0.472,-0.427 -25.72,-0.442 -26.56,-0.016 -0.302,0.154 -1.691,0.385 -3.088,0.515 -1.397,0.13 -3.362,0.372 -4.368,0.537 -1.005,0.166 -2.559,0.397 -3.453,0.515 -0.894,0.118 -2.494,0.354 -3.555,0.524 -1.062,0.171 -2.799,0.432 -3.86,0.581 -3.279,0.459 -14.818,2.548 -20.112,3.641 -1.285,0.265 -3.57,0.727 -5.079,1.027 -1.508,0.3 -3.793,0.761 -5.078,1.025 -4.51,0.925 -5.614,1.141 -8.837,1.7240004 -1.788,0.323 -3.982,0.733 -4.876,0.91 -4.128,0.819 -6.009,1.151 -10.361,1.828 -6.966,1.084 -10.289,1.506 -13.038,1.653 -2.483,0.134 -2.969,0.093 -9.105,-0.755 -7.798,-1.078 -14.484,-1.607 -20.338,-1.609 -5.673,-0.002 -6.727,0.111 -8.801,0.94 -1.491,0.597 -3.337,0.584 -6.209,-0.045 -0.782,-0.171 -2.336,-0.485 -3.453,-0.698 -4.285,-0.815 -6.423,-1.268 -10.056,-2.133 -2.067,-0.491 -4.124,-0.9540004 -4.571,-1.0280004 -0.447,-0.075 -2.289,-0.488 -4.094,-0.918 -1.805,-0.431 -4.09,-0.923 -5.079,-1.093 -0.988,-0.171 -2.62,-0.489 -3.625,-0.708 -4.412,-0.959 -6.452,-1.302 -13.307,-2.238 -1.62,-0.221 -4.499,-0.625 -6.399,-0.897 a 709.602,709.602 0 0 0 -13.509,-1.767 312.792,312.792 0 0 1 -3.961,-0.496 c -1.118,-0.148 -3.495,-0.378 -5.281998,-0.512 -2.165,-0.161 -3.358,-0.335 -3.571,-0.521 -0.464,-0.405 -24.893,-0.404 -25.426,0 M 119.30901,13.630981 c 1.397,0.135 3.591,0.416 4.876,0.624 1.285,0.208 2.839,0.438 3.453,0.511 1.033,0.122 2.372,0.397 7.517,1.544 1.061,0.236 2.844,0.689 3.961,1.005 1.118,0.316 3.053,0.853 4.302,1.192 30.715,8.342 38.248,24.107 26.188,54.806 -0.624,1.588 -1.135,2.935 -1.135,2.993 0,0.442 -4.772,11.065 -6.757,15.043 -7.467,14.958999 -18.819,26.059999 -32.881,32.151999 -3.224,1.397 -10.021,3.6 -12.681,4.11 -1.224,0.234 -2.791,0.559 -3.482,0.72 -0.69,0.162 -2.656,0.43 -4.367,0.597 -1.712,0.167 -4.007,0.397 -5.1,0.51 -2.525,0.26 -7.947998,0.264 -10.369998,0.007 a 755.419,755.419 0 0 0 -5.316,-0.532 c -4.182,-0.405 -14.061,-2.165 -15.085,-2.688 -0.195,-0.1 -0.995,-0.347 -1.777,-0.551 -5.7,-1.484 -15.605,-7.172 -15.298,-8.787 0.123,-0.649 1.9,-0.555 4.577,0.245 11.161,3.332 16.392,3.599 22.713,1.158 5.763,-2.225 11.325,-8.042 13.91,-14.549 1.925,-4.846999 2.222,-7.207999 2.229,-17.743999 0.006,-9.151 -0.223,-8.309 2.745998,-10.081 3.273,-1.952 8.221,-3.358 10.769,-3.06 3.312,0.389 6.045,1.318 8.169,2.779 2.118,1.457 2.326,2.213 1.257,4.573 -0.346,0.765 -1.586,3.622 -2.755,6.35 -1.169,2.728 -2.317,5.333 -2.551,5.79 -1.79,3.497 -5.639,13.285999 -7.036,17.893999 -1.274,4.203 -1.458,4.875 -1.677,6.133 -0.446,2.564 0.257,2.517 3.051,-0.201 5.253,-5.109 11.447,-6.916 19.013,-5.547 0.893,0.162 2.173,0.355 2.844,0.43 0.67,0.074 1.789,0.266 2.487,0.426 2.401,0.551 2.251,0.709 6.869,-7.234 4.043,-6.955999 4.276,-7.491999 3.594,-8.297999 -0.744,-0.879 -1.325,-0.779 -2.672,0.459 -1.459,1.341 -1.09,1.304 -6.277,0.628 -4.867,-0.636 -8.223,-0.661 -11.885,-0.092 -4.494,0.698 -4.62,0.406 -1.551,-3.586 3.405,-4.427 11.568,-17.305 11.568,-18.249 0,-0.071 0.511,-1.246 1.137,-2.611 1.747,-3.815 3.335,-8.226 3.634,-10.099 0.08,-0.503 0.322,-1.646 0.537,-2.54 0.5,-2.075 0.705,-7.135 0.412,-10.17 -1.102,-11.445 -9.444,-20.758 -23.597,-26.346 -6.277,-2.478 -4.699,-2.922 -17.470998,4.92 a 433.525,433.525 0 0 1 -4.876,2.945 c -1.173,0.693 -2.91,1.749 -3.86,2.345 -0.949,0.597 -2.458,1.517 -3.352,2.045 -5.616,3.318 -8.766,5.369 -9.073,5.909 -0.195,0.341 -0.3,1.775 -0.373,5.076 -0.137,6.186 0.156,5.906 -4.975,4.76 -4.431,-0.99 -7.446,-0.806 -10.363,0.631 -2.791,1.376 -2.634,2.247 0.485,2.694 6.483,0.93 11.372,4.866 13.572,10.927 1.04,2.866 0.609,3.247 -2.61,2.31 -5.684,-1.655 -9.618,-1.339 -12.584,1.01 -1.92,1.521 -1.316,2.218 1.924,2.223 6.287,0.009 10.059,2.46 13.017,8.459 1.664,3.374 1.522,3.545 -2.786,3.386 -4.594,-0.171 -7.125,0.541 -9.274,2.605 -1.571,1.51 -1.12,1.953 2.25,2.214 6.03,0.466 9.813,1.882 12.672,4.744 5.746,5.752 3.654,13.923999 -3.88,15.157999 -2.115,0.346 -7.628,0.236 -11.265,-0.224 -6.067,-0.769 -9.129,-0.329 -12.628,1.818 -2.515,1.541 -2.766,1.457 -4.745,-1.592 -6.43,-9.908999 -13.018,-32.865999 -14.75,-51.401999 -2.135,-22.852 3.478,-31.618 24.183,-37.767 1.162,-0.346 2.252,-0.628 2.423,-0.628 0.171,0 1.277,-0.221 2.458,-0.491 2.603,-0.594 6.314,-1.21 9.867,-1.636 1.453,-0.174 3.784,-0.456 5.181,-0.625 7.659,-0.928 12.191,-1.342 19.502,-1.78 2.942,-0.177 21.350998,0.019 23.767998,0.252 m 190.859,-0.086 c 7.392,0.437 19.619,1.783 25.8,2.841 1.564,0.267 3.529,0.586 4.367,0.708 3.319,0.484 10.655,2.572 11.501,3.274 0.982,0.815 -0.501,1.441 -4.567,1.926 -5.22,0.623 -11.155,-0.295 -16.583,-2.564 -2.995,-1.252 -3.429,-1.22 -5.667,0.416 -5.768,4.216 -8.863,6.428 -9.671,6.911 -0.503,0.301 -1.678,1.014 -2.611,1.584 -3.89,2.378 -9.869,3.963 -17.023,4.513 -4.279,0.33 -4.016,-0.091 -4.098,6.576 -0.077,6.201 -0.046,6.106 -2.042,6.309 -10.147,1.031 -15.844,3.336 -19.85,8.033 -2.761,3.237 -4.502,8.168 -3.425,9.706 0.434,0.619 0.515,0.593 1.856,-0.593 4.389,-3.882 8.16,-5.018 15.806,-4.76 5.396,0.182 6.796,0.364 7.269,0.948 0.516,0.638 0.422,43.275999 -0.102,45.993999 -0.973,5.049 -2.775,8.529 -5.226,10.09 -1.702,1.084 -2.114,0.95 -8.742,-2.835 -10.096,-5.767 -15.275,-6.567 -20.418,-3.154 -1.367,0.908 -1.927,0.873 -3.077,-0.187 -6.373,-5.874 -14.262,-19.594999 -19.689,-34.243999 -0.385,-1.039 -0.832,-2.145 -0.993,-2.457 -1.277,-2.469 -4.288,-13.253 -4.885,-17.493 -2.618,-18.619 6.595,-29.342 31.486,-36.644 8.998,-2.64 16.964,-4.167 26.003,-4.984 3.238,-0.293 19.108,-0.237 24.581,0.086 m -115.592,3.331 c 1.899,0.109 4.596,0.34 5.993,0.514 1.397,0.175 3.636,0.451 4.977,0.613 10.439,1.266 9.795,0.895 10.066,5.786 0.09,1.628 0.272,4.742 0.403,6.92 0.6,9.943 0.005,17.462 -1.493,18.861 -1.698,1.586 -19.55,1.795 -20.953,0.245 -0.222,-0.245 -1.076,-3.234 -2.25,-7.871 -2.471,-9.76 -4.935,-17.26 -7.091,-21.583 -2.042,-4.094 -1.793,-4.177 10.348,-3.485 m 166.071,7.556 c 4.972,3.325 8.213,7.687 9.538,12.833 1.822,7.077 1.283,20.48 -1.334,33.16 -0.392,1.9 -0.93,4.505 -1.197,5.79 -0.266,1.285 -0.626,2.736 -0.799,3.225 -0.172,0.489 -0.314,1.056 -0.314,1.26 0,0.203 -0.265,1.22 -0.589,2.259 -0.324,1.04 -0.789,2.621 -1.033,3.515 -7.703,28.142999 -21.824,40.160999 -49.977,42.532999 -1.397,0.118 -3.732,0.322 -5.19,0.454 -3.975,0.359 -11.244,0.022 -17.868,-0.83 -3.483,-0.448 -12.595,-2.894 -14.107,-3.787 -1.552,-0.918 -0.977,-1.284 4.255,-2.712 a 180.914,180.914 0 0 0 5.485,-1.632 426.46,426.46 0 0 1 6.703,-2.037 c 20.31,-5.962 27.399,-12.432 29.928,-27.316999 0.709,-4.172 0.916,-8.185 1.059,-20.518 0.067,-5.81 0.168,-10.724 0.224,-10.919 0.226,-0.792 0.769,-0.86 7.659,-0.965 l 6.67,-0.102 0.576,-0.645 c 0.396,-0.444 0.806,-1.398 1.309,-3.048 0.402,-1.32 1.055,-3.438 1.452,-4.705 1.41,-4.511 1.879,-4.287 -8.981,-4.294 -7.522,-0.004 -7.759,-0.016 -8.278,-0.425 l -0.536,-0.421 v -5.338 c 0,-6.9 -0.2,-6.659 4.266,-5.109 11.221,3.896 21.851,0.128 26.611,-9.433 1.267,-2.545 1.726,-2.626 4.468,-0.792 m -48.515,10.677 c 0.605,0.547 0.571,51.36 -0.037,55.851 -1.474,10.888999 -6.173,17.485999 -15.689,22.026999 -4.42,2.109 -4.841,1.578 -1.586,-2.004 2.246,-2.473 5.17,-6.569 5.938,-8.321 1.736,-3.954999 2.618,-7.335999 3.349,-12.835999 0.329,-2.471 0.375,-5.235 0.47,-27.9 l 0.106,-25.157 0.554,-0.478 c 0.326,-0.279 0.956,-0.533 1.524,-0.612 0.533,-0.074 1.609,-0.3 2.391,-0.502 1.82,-0.47 2.519,-0.486 2.98,-0.068 m -206.593,0.867 c 8.653,2.214 15.653,7.326 18.775,13.713 1.256,2.569 1.172,2.861 -1.405,4.899 -4.274,3.379 -9.449,4.572 -14.184,3.27 -3.13,-0.861 -8.01,-3.438 -9.305998,-4.914 l -0.628,-0.715 v -8.22 c 0,-10.491 -0.506,-9.888 6.747998,-8.033 m -10.004998,0.408 c 0.365,0.682 0.28,57.056 -0.09,59.841 -0.968,7.284999 -4.674,11.858999 -10.398,12.835999 -3.532,0.603 -4.198,-0.275 -1.713,-2.257 3.072,-2.451 5.203,-6.006 6.101,-10.172999 0.24,-1.117 0.497,-2.214 0.571,-2.438 0.073,-0.223 0.183,-12.793 0.245,-27.932 0.127,-31.649 -0.126,-28.345 2.268,-29.543 1.645,-0.823 2.692,-0.939 3.016,-0.334 m 30.551998,20.384 c 1.194,0.873 1.109,6.49 -0.181,12.019 -1.119,4.794 -1.576,5.297 -3.874,4.275 -2.686,-1.194 -4.349,-1.725 -6.326,-2.021 -4.915,-0.735 -9.068,-0.208 -13.424,1.704 -3.252998,1.428 -3.184998,1.585 -3.184998,-7.399 0,-9.25 -0.19,-8.921 3.986998,-6.914 6.917,3.323 14.728,3.037 20.239,-0.741 0.771,-0.529 1.992,-1.152 2.297,-1.174 0.062,-0.004 0.273,0.109 0.467,0.251"
     fill="#ffce3e"
     fill-rule="evenodd"
     id="path2" />
</svg>
