<?xml version="1.0" encoding="iso-8859-1"?>
<!-- Uploaded to: SVG Repo, www.svgrepo.com, Generator: SVG Repo Mixer Tools -->
<svg height="800px" width="800px" version="1.1" id="Layer_1" xmlns="http://www.w3.org/2000/svg" xmlns:xlink="http://www.w3.org/1999/xlink" 
	 viewBox="0 0 511.999 511.999" xml:space="preserve">
<g>
	<circle style="fill:#88888F;" cx="293.516" cy="218.483" r="43.717"/>
	<path style="fill:#88888F;" d="M355.343,280.307c34.089-34.092,34.089-89.562-0.001-123.651
		c-34.092-34.092-89.56-34.092-123.651,0.001l-30.914-30.914c51.137-51.136,134.341-51.139,185.477-0.001
		c51.134,51.137,51.136,134.339-0.001,185.477L355.343,280.307z"/>
	<path style="fill:#88888F;" d="M448.078,373.046l-30.911-30.912c68.181-68.181,68.182-179.12,0-247.301
		c-68.181-68.181-179.12-68.18-247.301,0.001L138.956,63.92c85.226-85.225,223.899-85.226,309.124,0
		C533.306,149.148,533.306,287.819,448.078,373.046z"/>
</g>
<path style="fill:#98C8ED;" d="M314.127,362.738l-41.219,41.218L108.041,239.092l41.219-41.219l-92.738-92.735l-30.912,30.911
	c-34.147,34.146-34.144,89.506,0,123.652l226.691,226.69c34.144,34.144,89.505,34.144,123.65-0.001l30.912-30.911L314.127,362.738z"
	/>
<path style="fill:#7AB9E8;" d="M314.127,362.738l-41.219,41.218l-82.433-82.431l-51.52,51.519L252.301,486.39
	c34.144,34.144,89.505,34.144,123.651-0.001l30.912-30.911L314.127,362.738z"/>
<g>
	<path style="fill:#56545A;" d="M262.605,249.395c17.073,17.071,44.753,17.071,61.825,0c17.073-17.071,17.071-44.753,0-61.825
		h-0.001L262.605,249.395L262.605,249.395z"/>
	<path style="fill:#56545A;" d="M355.342,156.657c34.089,34.089,34.089,89.559,0.001,123.65l30.911,30.914
		c51.137-51.137,51.134-134.339,0.001-185.477L355.342,156.657L355.342,156.657z"/>
	<path style="fill:#56545A;" d="M417.168,342.133l30.911,30.912c85.228-85.225,85.228-223.898,0.001-309.126l0,0l-30.912,30.912l0,0
		C485.35,163.013,485.347,273.952,417.168,342.133z"/>
</g>
</svg>