<?xml version="1.0" encoding="UTF-8" standalone="no"?>
<!-- Uploaded to: SVG Repo, www.svgrepo.com, Generator: SVG Repo Mixer Tools -->

<svg
   width="543.77643"
   height="387.03094"
   viewBox="0 0 348.01691 247.6998"
   aria-hidden="true"
   role="img"
   class="iconify iconify--fxemoji"
   preserveAspectRatio="xMidYMid"
   version="1.1"
   id="svg9"
   xml:space="preserve"
   xmlns="http://www.w3.org/2000/svg"
   xmlns:svg="http://www.w3.org/2000/svg"><defs
     id="defs9" /><path
     style="display:none;fill:#93b7ff;fill-opacity:1;stroke:none;stroke-width:8.84104;stroke-linecap:square;stroke-dashoffset:4.94875;stroke-opacity:0;paint-order:markers stroke fill"
     d="m 1.4576638,252.0029 c 0,0 -103.0282038,-108.14821 -18.9025448,-194.932458 86.637317,-89.375278 89.787077,-17.72114 160.671621,-29.53523 70.88452,-11.81409 40.16789,-68.521706 133.49919,-55.526213 93.3313,12.995497 56.75864,64.337623 86.68735,153.681751 C 385.1641,190.62199 343.95425,255.90343 226.12254,239.64572 141.85937,228.0196 68.797966,298.07785 1.4576638,252.0029 Z"
     id="path21" /><g
     id="g21"
     transform="matrix(-0.09723648,-0.35270774,0.35270774,-0.09723648,9.2452718,262.41599)"
     style="display:inline"><path
       fill="#c6965c"
       d="m 345.506,194.188 -22.645,18.459 c -6.9,5.625 -17.174,9.231 -26.301,9.231 H 128.456 c -12.896,0 -27.249,7.089 -32.06,15.833 L 8.71,397.099 c -4.811,8.744 1.744,15.833 14.639,15.833 h 346.87 c 12.896,0 27.249,-7.089 32.06,-15.833 l 77.009,-139.981 19.387,-35.24 11.601,-21.088 c 4.811,-8.744 -1.744,-15.833 -14.639,-15.833 h -123.83 c -9.127,0.001 -19.401,3.607 -26.301,9.231 z"
       id="path1-27" /><path
       fill="#d6a667"
       d="m 311.029,163.947 -19.735,21.011 c -6.014,6.403 -15.719,10.507 -24.846,10.507 H 98.343 c -12.896,0 -26.132,8.069 -29.564,18.022 L 6.215,394.91 c -3.432,9.953 4.239,18.022 17.135,18.022 h 346.87 c 12.896,0 26.132,-8.069 29.564,-18.022 l 54.946,-159.334 13.832,-40.112 8.277,-24.003 c 3.432,-9.953 -4.239,-18.022 -17.135,-18.022 h -123.83 c -9.126,0.001 -18.831,4.105 -24.845,10.508 z"
       id="path2-6" /><path
       fill="#eac083"
       d="m 265.825,129.524 -15.921,23.916 c -4.851,7.288 -13.812,11.959 -22.938,11.959 H 58.861 c -12.896,0 -24.667,9.184 -26.292,20.513 L 2.943,392.418 c -1.625,11.329 7.511,20.513 20.407,20.513 h 346.87 c 12.896,0 24.667,-9.184 26.292,-20.513 l 26.018,-181.362 6.55,-45.657 3.92,-27.321 c 1.625,-11.329 -7.511,-20.513 -20.407,-20.513 h -123.83 c -9.127,-0.001 -18.087,4.671 -22.938,11.959 z"
       id="path3-1"
       style="display:inline" /><path
       fill="#f9e7c0"
       d="m 225.167,90.342 -12.49,27.223 a 23.35,23.35 0 0 1 -21.222,13.613 H 23.349 C 10.454,131.177 0,141.631 0,154.526 v 235.056 c 0,12.896 10.454,23.349 23.349,23.349 h 346.87 c 12.896,0 23.349,-10.454 23.349,-23.349 V 100.078 c 0,-12.896 -10.454,-23.349 -23.349,-23.349 h -123.83 a 23.348,23.348 0 0 0 -21.222,13.613 z"
       id="path4-3" /></g><g
     id="g17"
     transform="matrix(0.27215294,-0.11904235,0.11904235,0.27215294,165.71421,39.621492)"><path
       fill="#dce2e2"
       d="M 433.694,507.594 H 78.306 c -11.929,0 -21.6,-9.671 -21.6,-21.6 V 25.317 c 0,-11.929 9.671,-21.6 21.6,-21.6 h 263.026 l 113.961,112.739 v 369.538 c 10e-4,11.929 -9.67,21.6 -21.599,21.6 z"
       id="path1-1"
       style="fill:#0062b8;fill-opacity:1;stroke:none;stroke-opacity:1" /><g
       id="g16"
       transform="matrix(3.3664442,0,0,3.3664442,-350.87986,-1051.0699)"
       style="fill:#1c95ff;fill-opacity:1;stroke:none;stroke-opacity:1"><path
         style="display:inline;fill:#1c95ff;fill-opacity:1;stroke:none;stroke-width:0.297154;stroke-opacity:1"
         d="m 170.95464,443.34383 c 0,-2.21559 -1.796,-4.01159 -4.01159,-4.01159 h -24.69146 c -2.21559,0 -4.01159,1.796 -4.01159,4.01159 0,2.21559 1.796,4.01159 4.01159,4.01159 h 24.69146 c 2.21559,0 4.01159,-1.796 4.01159,-4.01159 z"
         id="path13" /><path
         style="display:inline;fill:#1c95ff;fill-opacity:1;stroke:none;stroke-width:0.297154;stroke-opacity:1"
         d="m 222.30622,407.66717 c 0,-2.21559 -1.796,-4.01159 -4.01158,-4.01159 h -76.04305 c -2.21559,0 -4.01159,1.796 -4.01159,4.01159 0,2.21558 1.796,4.01158 4.01159,4.01158 h 76.04305 c 2.21588,0 4.01158,-1.796 4.01158,-4.01158 z"
         id="path12" /><path
         style="display:inline;fill:#1c95ff;fill-opacity:1;stroke:none;stroke-width:0.297154;stroke-opacity:1"
         d="m 222.67282,336.31384 c 0,-2.21559 -1.796,-4.01159 -4.01158,-4.01159 h -76.04305 c -2.21559,0 -4.01159,1.796 -4.01159,4.01159 0,2.21558 1.796,4.01158 4.01159,4.01158 h 76.04305 c 2.21588,0 4.01158,-1.796 4.01158,-4.01158 z"
         id="path12-93" /><path
         style="display:inline;fill:#1c95ff;fill-opacity:1;stroke:none;stroke-width:0.297154;stroke-opacity:1"
         d="m 222.30622,425.5055 c 0,-2.21559 -1.796,-4.01159 -4.01158,-4.01159 h -76.04305 c -2.21559,0 -4.01159,1.796 -4.01159,4.01159 0,2.21558 1.796,4.01158 4.01159,4.01158 h 76.04305 c 2.21588,0 4.01158,-1.796 4.01158,-4.01158 z"
         id="path12-9" /><path
         style="display:inline;fill:#1c95ff;fill-opacity:1;stroke:none;stroke-width:0.297154;stroke-opacity:1"
         d="m 170.95464,389.82883 c 0,-2.21558 -1.796,-4.01158 -4.01159,-4.01158 h -24.69146 c -2.21559,0 -4.01159,1.796 -4.01159,4.01158 0,2.21559 1.796,4.01159 4.01159,4.01159 h 24.69146 c 2.21559,0 4.01159,-1.796 4.01159,-4.01159 z"
         id="path11" /><path
         style="display:inline;fill:#1c95ff;fill-opacity:1;stroke:none;stroke-width:0.297154;stroke-opacity:1"
         d="m 222.30622,371.9905 c 0,-2.21558 -1.796,-4.01158 -4.01158,-4.01158 h -76.04305 c -2.21559,0 -4.01159,1.796 -4.01159,4.01158 0,2.21559 1.796,4.01159 4.01159,4.01159 h 76.04305 c 2.21588,0 4.01158,-1.796 4.01158,-4.01159 z"
         id="path10" /><path
         style="display:inline;fill:#1c95ff;fill-opacity:1;stroke:none;stroke-width:0.297154;stroke-opacity:1"
         d="m 218.29464,358.16376 h -76.04305 c -2.21559,0 -4.01159,-1.796 -4.01159,-4.01159 0,-2.21558 1.796,-4.01159 4.01159,-4.01159 h 76.04305 c 2.21558,0 4.01158,1.79601 4.01158,4.01159 0,2.21559 -1.7957,4.01159 -4.01158,4.01159 z"
         id="path2-5-6" /></g><path
       fill="#b9c5c6"
       d="m 341.333,3.717 112.739,112.739 h -88.776 c -13.235,0 -23.963,-10.729 -23.963,-23.963 z"
       id="path3-7"
       style="fill:#0080f5;fill-opacity:1" /></g><g
     id="layer2"
     transform="translate(-58.223212,-114.21191)"
     style="display:inline"><g
       id="g15"
       transform="matrix(0.67601937,0,0,0.67601937,70.83155,81.562978)"
       style="stroke:none;stroke-opacity:1"><g
         id="g14"
         style="display:inline;stroke:none;stroke-opacity:1"><path
           fill="#dce2e2"
           d="M 309.72337,361.31592 H 153.50761 c -5.24358,0 -9.49461,-4.25104 -9.49461,-9.49461 V 157.46096 c 0,-5.24357 4.25103,-9.49461 9.49461,-9.49461 h 156.21576 c 5.24357,0 9.49461,4.25104 9.49461,9.49461 v 194.36035 c 0,5.24357 -4.25104,9.49461 -9.49461,9.49461 z"
           id="path1"
           style="fill:#f8ffff;fill-opacity:1;stroke:none;stroke-width:0.439565;stroke-opacity:1" /><path
           fill="#96a9b2"
           d="M 283.81715,203.43684 H 171.33066 c -3.2774,0 -5.93413,-2.65673 -5.93413,-5.93413 0,-3.2774 2.65673,-5.93413 5.93413,-5.93413 h 112.48649 c 3.2774,0 5.93413,2.65673 5.93413,5.93413 0,3.2774 -2.65629,5.93413 -5.93413,5.93413 z m 5.93413,20.99803 c 0,-3.2774 -2.65673,-5.93413 -5.93413,-5.93413 H 171.33066 c -3.2774,0 -5.93413,2.65673 -5.93413,5.93413 0,3.2774 2.65673,5.93413 5.93413,5.93413 h 112.48649 c 3.27784,0 5.93413,-2.65673 5.93413,-5.93413 z m -75.9617,26.9326 c 0,-3.2774 -2.65673,-5.93413 -5.93413,-5.93413 h -36.52479 c -3.2774,0 -5.93413,2.65673 -5.93413,5.93413 0,3.2774 2.65673,5.93413 5.93413,5.93413 h 36.52479 c 3.2774,0 5.93413,-2.65673 5.93413,-5.93413 z m 75.9617,26.93216 c 0,-3.2774 -2.65673,-5.93413 -5.93413,-5.93413 H 171.33066 c -3.2774,0 -5.93413,2.65673 -5.93413,5.93413 0,3.2774 2.65673,5.93413 5.93413,5.93413 h 112.48649 c 3.27784,0 5.93413,-2.65673 5.93413,-5.93413 z m -75.9617,52.17595 c 0,-3.2774 -2.65673,-5.93413 -5.93413,-5.93413 h -36.52479 c -3.2774,0 -5.93413,2.65673 -5.93413,5.93413 0,3.2774 2.65673,5.93413 5.93413,5.93413 h 36.52479 c 3.2774,0 5.93413,-2.65673 5.93413,-5.93413 z"
           id="path2"
           style="fill:#bad0dd;fill-opacity:1;stroke:none;stroke-width:0.439565;stroke-opacity:1" /><path
           fill="#b9c5c6"
           d="M 265.15321,162.51068 H 196.4795 c -3.5385,0 -6.4071,-2.8686 -6.4071,-6.4071 v -9.8678 c 0,-3.5385 2.8686,-6.4071 6.4071,-6.4071 h 68.67371 c 3.5385,0 6.40711,2.8686 6.40711,6.4071 v 9.8678 c 0,3.5385 -2.86861,6.4071 -6.40711,6.4071 z"
           id="path9"
           style="stroke:none;stroke-width:0.439565;stroke-opacity:1" /></g><g
         id="g13"
         transform="translate(-3.6056361,-1.8028194)"
         style="stroke:none;stroke-opacity:1"><path
           fill="#ff6e83"
           d="m 344.20506,199.96252 c -8.61504,-8.61504 -18.44328,-12.75399 -21.95189,-9.24494 l -23.72729,23.72729 31.19727,31.19726 23.72729,-23.72728 c 3.50904,-3.50905 -0.63034,-13.33729 -9.24538,-21.95233 z"
           id="path3"
           style="stroke:none;stroke-width:0.439565;stroke-opacity:1" /><path
           fill="#bfbcaf"
           d="m 329.1649,215.00312 c -9.82912,-9.82912 -21.04243,-14.55137 -25.04555,-10.5478 l -24.2974,24.2974 35.59379,35.59379 24.2974,-24.2974 c 4.00312,-4.00356 -0.71956,-15.21731 -10.54824,-25.04599 z"
           id="path4"
           style="stroke:none;stroke-width:0.439565;stroke-opacity:1" /><path
           fill="#2b2622"
           d="m 235.46762,324.83948 -21.40067,9.30823 a 3.0751982,3.0751982 0 0 1 -4.04664,-1.59342 3.0914621,3.0914621 0 0 1 0,-2.45322 l 9.30823,-21.40067 c 2.70157,-6.21149 9.92758,-9.0568 16.13908,-6.35523 6.21149,2.70157 9.0568,9.92758 6.35523,16.13907 -1.28529,2.95476 -3.61894,5.15874 -6.35523,6.35524 z"
           id="path5"
           style="stroke:none;stroke-width:0.439565;stroke-opacity:1" /><path
           fill="#ffd469"
           d="m 325.67431,254.01278 c 0.0224,-0.0325 0.0457,-0.0646 0.0668,-0.0976 3.08707,-4.42334 -1.63606,-15.07225 -11.02605,-24.46224 -9.38999,-9.38999 -20.03846,-14.11312 -24.4618,-11.0265 -0.0334,0.0215 -0.0655,0.0444 -0.098,0.0672 -0.04,0.0295 -0.0809,0.0571 -0.11956,0.0879 -0.10901,0.084 -0.21538,0.17275 -0.31561,0.27253 l -56.46654,56.46655 c 0,0 -15.97424,39.53054 -9.95528,45.54906 6.01853,6.01853 45.54907,-9.95527 45.54907,-9.95527 l 56.46655,-56.46655 c 0.0998,-0.0998 0.18901,-0.20615 0.27253,-0.3156 0.0303,-0.0383 0.0585,-0.0796 0.0879,-0.11956 z"
           id="path6"
           style="stroke:none;stroke-width:0.439565;stroke-opacity:1" /><path
           fill="#e5aa6e"
           d="m 233.25265,275.32158 -1.25408,7.81503 c -0.18462,1.14946 0.811,2.142 1.95958,1.9543 l 5.6005,-0.91473 c 1.10595,-0.18066 2.0831,0.73627 1.97321,1.85145 l -0.62374,6.32182 a 1.7063921,1.7063921 0 0 0 1.95958,1.85365 l 5.66028,-0.87781 c 1.15737,-0.17934 2.14728,0.83341 1.94112,1.98639 l -0.96836,5.41545 c -0.19957,1.11517 0.72352,2.11167 1.85101,1.99782 l 6.37061,-0.64264 a 1.7059526,1.7059526 0 0 1 1.8686,1.87123 l -0.65671,6.42688 c -0.11297,1.10595 0.84484,2.02288 1.94463,1.86156 l 8.1069,-1.18771 -45.68796,19.11713 c 3.64487,-3.64487 -5.7926,-13.0819 -9.43747,-9.43746 z"
           id="path7"
           style="stroke:none;stroke-width:0.439565;stroke-opacity:1" /><path
           fill="#ffb636"
           d="m 244.97717,277.38622 a 2.1283747,2.1283747 0 0 1 -1.50463,-3.63257 l 47.1148,-47.11524 a 2.1283747,2.1283747 0 0 1 3.00926,3.00927 l -47.11524,47.11523 a 2.1191439,2.1191439 0 0 1 -1.50419,0.62331 z m 13.54037,11.41287 47.11523,-47.11524 a 2.1283747,2.1283747 0 0 0 -3.00926,-3.00926 l -47.11524,47.11523 a 2.1283747,2.1283747 0 0 0 3.00927,3.00927 z m 12.03573,12.03573 47.11524,-47.11523 a 2.1283747,2.1283747 0 0 0 -3.00926,-3.00927 l -47.11524,47.11524 a 2.1283747,2.1283747 0 0 0 3.00926,3.00926 z"
           id="path8"
           style="stroke:none;stroke-width:0.439565;stroke-opacity:1" /></g></g></g></svg>
