<?xml version="1.0" encoding="UTF-8"?>
<svg xmlns="http://www.w3.org/2000/svg" width="2400" height="300" viewBox="0 0 240 30" fill="none">
  <path d="M97.3367 30V0.0383778H121.729V7.02941H107.132V11.3316H121.652V18.3226H107.132V23.0089H122.343V30H97.3367Z" fill="#0078e4"/>
  <path d="M134.213 19.5518V30H124.379V0.0383778H138.515C148.502 0.0383778 151.383 2.72723 151.383 8.5659C151.383 12.023 150.23 14.9423 146.735 15.9026C149.885 17.055 152.42 26.8117 152.689 28.9244L152.842 30H142.894C142.894 30 141.741 19.5518 137.132 19.5518H134.213ZM134.213 12.9833H138.092C141.127 12.9833 142.74 12.2535 142.74 10.1408C142.74 8.02813 141.088 7.02941 138.784 7.02941H134.213V12.9833Z" fill="#0078e4"/>
  <path d="M174.392 16.402L174.046 9.56462V0.0383778H183.457V30H174.238L163.56 13.6747L163.905 20.5121V30H154.533V0.0383778H163.713L174.392 16.402Z" fill="#0078e4"/>
  <path d="M185.647 30V0.0383778H210.077V7.02941H195.48V11.3316H209.577V18.3226H195.48V23.0089H210.653V30H185.647Z" fill="#0078e4"/>
  <path d="M212.113 0.0383778H239.539V7.06782H230.743V30H220.909V7.06782H212.113V0.0383778Z" fill="#0078e4"/>
  <path d="M33.3034 3.76436C37.644 3.18818 42.4456 2.88089 47.6312 3.14978C50.8963 3.34184 53.8924 3.72596 56.6197 4.26373V0.0383778H33.3034V3.76436ZM91.0755 14.0973C92.9961 12.9065 94.9936 10.6402 94.9936 7.56719C94.9936 1.61328 89.6159 0.0383778 82.8937 0.0383778H70.3713V10.5633C71.5237 11.6005 72.5992 12.7144 73.4443 13.9436C77.516 20.0128 76.5557 26.7349 75.6722 30H83.201C90.9603 30 96.1075 27.6952 96.1075 20.9731C96.0691 17.708 94.3406 14.9423 91.0755 14.0973ZM80.2048 7.02941H81.8566C83.9308 7.02941 85.8514 7.06782 85.8514 9.41097C85.8514 11.1395 84.4302 12.023 82.4712 12.023H80.2048V7.02941ZM82.6632 23.0089H80.1664V17.4776H81.4724C84.5838 17.4776 86.8886 17.6312 86.8886 20.2432C86.927 22.5096 85.0832 23.0089 82.6632 23.0089ZM33.3034 5.56975V30H43.137V19.475H53.854V12.484H43.137V7.02941H56.6197V6.14593C53.8924 5.56975 50.8579 5.14721 47.516 4.95515C42.3687 4.68626 37.6056 4.99356 33.3034 5.56975ZM58.3867 4.72467C62.2663 5.68498 65.5313 7.06783 68.1818 8.8732V0.0383778H58.3867V4.72467ZM70.3713 13.0217V30H73.79C75.0576 25.7362 75.1728 19.7823 71.9078 14.9423C71.4468 14.2509 70.9475 13.6363 70.3713 13.0217ZM58.3867 30H68.1818V11.0243C65.6466 9.06527 62.3431 7.6056 58.3867 6.56847V30Z" fill="#0078e4"/>
  <path d="M27.1191 15.9027C27.1191 22.2407 23.1626 27.6569 17.5928 29.8464C24.9296 28.8861 30.5762 22.5865 30.5762 14.9808C30.5762 12.0999 29.7695 9.37263 28.3099 7.06789C27.0423 7.29837 25.8515 7.52885 24.6991 7.75932C26.2356 10.1409 27.1191 12.9066 27.1191 15.9027Z" fill="#0078e4"/>
  <path d="M15.5954 0C13.6748 0 11.831 0.384128 10.1024 1.03714C10.7554 0.960312 11.4468 0.883478 12.0999 0.883478C16.2484 0.883478 20.0128 2.57362 22.7401 5.30089C23.854 4.99359 25.0064 4.6863 26.2356 4.41741C23.5083 1.69014 19.7439 0 15.5954 0Z" fill="#0078e4"/>
  <path d="M9.33418 11.3316L9.41101 11.37C9.48783 11.3316 19.283 7.41356 33.265 5.53136V3.72598C18.7452 5.68501 9.71831 11.1011 9.33418 11.3316Z" fill="#0078e4"/>
  <path d="M10.9475 29.5006C5.53137 27.6568 1.19078 22.8937 0.076828 17.7849C1.11396 23.6235 5.53137 28.5403 11.6773 29.8463C11.9078 29.8847 12.1383 29.9232 12.3303 29.9616V29.8463C11.8694 29.7695 11.4085 29.6543 10.9475 29.5006Z" fill="#0078e4"/>
  <path d="M0 17.2855C0.0384123 17.4392 0.0384126 17.6312 0.0768249 17.7849C0.0768249 17.5928 0.0384123 17.4392 0 17.2855Z" fill="#0078e4"/>
</svg>
