<?xml version="1.0" encoding="UTF-8" standalone="no"?>
<!-- Uploaded to: SVG Repo, www.svgrepo.com, Generator: SVG Repo Mixer Tools -->

<svg
   width="716.66766"
   height="692.00385"
   viewBox="0 0 21.50003 20.760115"
   fill="none"
   version="1.1"
   id="svg2"
   xml:space="preserve"
   xmlns="http://www.w3.org/2000/svg"
   xmlns:svg="http://www.w3.org/2000/svg"><defs
     id="defs2" /><path
     d="m 0.75001517,12.0101 c 0,-3.77124 0,-5.65685 1.17157003,-6.82843 1.17158,-1.17157 3.05719,-1.17157 6.82843,-1.17157 h 3.9999998 c 3.7712,0 5.6569,0 6.8284,1.17157 1.1716,1.17158 1.1716,3.05719 1.1716,6.82843 0,3.7712 0,5.6569 -1.1716,6.8284 -1.1715,1.1716 -3.0572,1.1716 -6.8284,1.1716 H 8.7500152 c -3.77124,0 -5.65685,0 -6.82843,-1.1716 C 0.75001517,17.667 0.75001517,15.7813 0.75001517,12.0101 Z"
     stroke="#1c274c"
     stroke-width="1.5"
     id="path1"
     style="stroke:#5b5b5b;stroke-opacity:1" /><path
     d="m 4.7500152,8.0101 2.1589,1.79908 c 1.83663,1.53052 2.755,2.29582 3.8410998,2.29582 1.0861,0 2.0045,-0.7653 3.8411,-2.29582 l 2.1589,-1.79908"
     stroke="#1C274C"
     stroke-width="1.5"
     stroke-linecap="round"
     id="path2"
     style="display:inline;stroke:#5b5b5b;stroke-opacity:1" /><g
     style="display:none;fill:#00ff00;fill-opacity:1;stroke:none;stroke-opacity:1"
     id="g2"
     transform="translate(-1.2499848,-2)"><path
       d="m 10,22.0002 h 4 c 3.7712,0 5.6569,0 6.8284,-1.1716 C 22,19.6571 22,17.7714 22,14.0002 22,10.229 22,8.34335 20.8284,7.17178 20.4658,6.80918 20.0343,6.5588 19.4996,6.38591 19.5,6.55544 19.5,6.72881 19.5,6.90517 v 2.1581 c 0,0.02936 3e-4,0.06134 6e-4,0.09566 0.0029,0.34045 0.0079,0.91107 -0.2366,1.43307 -0.2445,0.5221 -0.686,0.8836 -0.9495,1.0993 -0.0263,0.0215 -0.0515,0.0421 -0.0738,0.0607 l -1.5065,1.2555 c -0.8608,0.7173 -1.6101,1.3418 -2.2837,1.775 -0.726,0.467 -1.5114,0.8124 -2.4505,0.8124 -0.9391,0 -1.7244,-0.3454 -2.45051,-0.8124 -0.6736,-0.4332 -1.42288,-1.0577 -2.28362,-1.775 L 5.75937,11.752 C 5.73681,11.7333 5.71207,11.713 5.68551,11.6913 5.42207,11.4756 4.98056,11.1141 4.73604,10.592 4.49152,10.07 4.49648,9.49938 4.49944,9.15893 4.49973,9.12462 4.50001,9.09262 4.50001,9.06327 V 6.90516 C 4.49999,6.72858 4.49998,6.55528 4.5004,6.38556 3.96577,6.55846 3.53442,6.80893 3.17157,7.17178 2,8.34335 2,10.229 2,14.0002 c 0,3.7712 0,5.6569 1.17157,6.8284 1.17157,1.1716 3.0572,1.1716 6.82843,1.1716 z"
       fill="#1c274c"
       id="path1-3"
       style="fill:#00ff00;fill-opacity:1;stroke:none;stroke-opacity:1" /><path
       fill-rule="evenodd"
       clip-rule="evenodd"
       d="m 6.71972,10.5997 1.43926,1.1994 c 1.83664,1.5305 2.75492,2.2958 3.84112,2.2958 1.0861,0 2.0045,-0.7653 3.8411,-2.2958 l 1.4393,-1.1994 c 0.3538,-0.2949 0.5308,-0.4423 0.6252,-0.64392 0.0944,-0.20157 0.0944,-0.43189 0.0944,-0.89253 V 7 c 0,-0.32063 0,-0.61946 -0.0019,-0.89831 C 17.9865,4.3306 17.9005,3.36486 17.2679,2.73223 16.5356,2 15.3571,2 13.0001,2 h -2 C 8.64306,2 7.46455,2 6.73232,2.73223 6.09969,3.36486 6.01179,4.3306 6.00009,6.10169 c -0.00185,0.27885 0,0.57768 0,0.89831 v 2.06325 c 0,0.46064 0,0.69096 0.09441,0.89253 0.09441,0.20162 0.27134,0.34902 0.62522,0.64392 z M 9.25,6 C 9.25,5.58579 9.58579,5.25 10,5.25 h 4 c 0.4142,0 0.75,0.33579 0.75,0.75 0,0.41421 -0.3358,0.75 -0.75,0.75 H 10 C 9.58579,6.75 9.25,6.41421 9.25,6 Z m 1,3 c 0,-0.41421 0.3358,-0.75 0.75,-0.75 h 2 c 0.4142,0 0.75,0.33579 0.75,0.75 0,0.41421 -0.3358,0.75 -0.75,0.75 H 11 C 10.5858,9.75 10.25,9.41421 10.25,9 Z"
       fill="#1c274c"
       id="path2-5"
       style="fill:#00ff00;fill-opacity:1;stroke:none;stroke-opacity:1" /></g></svg>
