<?xml version="1.0" encoding="UTF-8" standalone="no"?>
<!-- Uploaded to: SVG Repo, www.svgrepo.com, Generator: SVG Repo Mixer Tools -->

<svg
   width="716.66766"
   height="692.00385"
   viewBox="0 0 21.50003 20.760115"
   fill="none"
   version="1.1"
   id="svg2"
   xml:space="preserve"
   xmlns="http://www.w3.org/2000/svg"
   xmlns:svg="http://www.w3.org/2000/svg"><defs
     id="defs2" /><g
     style="display:inline;fill:#0062b8;fill-opacity:1;stroke:none;stroke-opacity:1"
     id="g2"
     transform="translate(-1.2499848,-2)"><path
       d="m 10,22.0002 h 4 c 3.7712,0 5.6569,0 6.8284,-1.1716 C 22,19.6571 22,17.7714 22,14.0002 22,10.229 22,8.34335 20.8284,7.17178 20.4658,6.80918 20.0343,6.5588 19.4996,6.38591 19.5,6.55544 19.5,6.72881 19.5,6.90517 v 2.1581 c 0,0.02936 3e-4,0.06134 6e-4,0.09566 0.0029,0.34045 0.0079,0.91107 -0.2366,1.43307 -0.2445,0.5221 -0.686,0.8836 -0.9495,1.0993 -0.0263,0.0215 -0.0515,0.0421 -0.0738,0.0607 l -1.5065,1.2555 c -0.8608,0.7173 -1.6101,1.3418 -2.2837,1.775 -0.726,0.467 -1.5114,0.8124 -2.4505,0.8124 -0.9391,0 -1.7244,-0.3454 -2.45051,-0.8124 -0.6736,-0.4332 -1.42288,-1.0577 -2.28362,-1.775 L 5.75937,11.752 C 5.73681,11.7333 5.71207,11.713 5.68551,11.6913 5.42207,11.4756 4.98056,11.1141 4.73604,10.592 4.49152,10.07 4.49648,9.49938 4.49944,9.15893 4.49973,9.12462 4.50001,9.09262 4.50001,9.06327 V 6.90516 C 4.49999,6.72858 4.49998,6.55528 4.5004,6.38556 3.96577,6.55846 3.53442,6.80893 3.17157,7.17178 2,8.34335 2,10.229 2,14.0002 c 0,3.7712 0,5.6569 1.17157,6.8284 1.17157,1.1716 3.0572,1.1716 6.82843,1.1716 z"
       fill="#1c274c"
       id="path1-3"
       style="fill:#0062b8;fill-opacity:1;stroke:none;stroke-opacity:1" /><path
       fill-rule="evenodd"
       clip-rule="evenodd"
       d="m 6.71972,10.5997 1.43926,1.1994 c 1.83664,1.5305 2.75492,2.2958 3.84112,2.2958 1.0861,0 2.0045,-0.7653 3.8411,-2.2958 l 1.4393,-1.1994 c 0.3538,-0.2949 0.5308,-0.4423 0.6252,-0.64392 0.0944,-0.20157 0.0944,-0.43189 0.0944,-0.89253 V 7 c 0,-0.32063 0,-0.61946 -0.0019,-0.89831 C 17.9865,4.3306 17.9005,3.36486 17.2679,2.73223 16.5356,2 15.3571,2 13.0001,2 h -2 C 8.64306,2 7.46455,2 6.73232,2.73223 6.09969,3.36486 6.01179,4.3306 6.00009,6.10169 c -0.00185,0.27885 0,0.57768 0,0.89831 v 2.06325 c 0,0.46064 0,0.69096 0.09441,0.89253 0.09441,0.20162 0.27134,0.34902 0.62522,0.64392 z M 9.25,6 C 9.25,5.58579 9.58579,5.25 10,5.25 h 4 c 0.4142,0 0.75,0.33579 0.75,0.75 0,0.41421 -0.3358,0.75 -0.75,0.75 H 10 C 9.58579,6.75 9.25,6.41421 9.25,6 Z m 1,3 c 0,-0.41421 0.3358,-0.75 0.75,-0.75 h 2 c 0.4142,0 0.75,0.33579 0.75,0.75 0,0.41421 -0.3358,0.75 -0.75,0.75 H 11 C 10.5858,9.75 10.25,9.41421 10.25,9 Z"
       fill="#1c274c"
       id="path2-5"
       style="fill:#0062b8;fill-opacity:1;stroke:none;stroke-opacity:1" /></g><path
     id="path1"
     style="baseline-shift:baseline;display:inline;overflow:visible;opacity:1;vector-effect:none;fill:#0062b8;fill-opacity:1;enable-background:accumulate;stop-color:#000000;stop-opacity:1"
     d="m 18.245098,3.6148828 v 1.5723633 c 0.325858,0.1313116 0.57989,0.3017906 0.80373,0.5256445 0.443541,0.4435338 0.675501,1.0035428 0.810527,2.007832 0.135026,1.0042892 0.140625,2.4034424 0.140625,4.2890624 0,1.8856 -0.0056,3.284766 -0.140625,4.289063 -0.135027,1.004297 -0.367007,1.566283 -0.810527,2.009765 -0.443482,0.44352 -1.005468,0.677434 -2.009766,0.812461 C 16.034765,19.2561 14.6356,19.259766 12.75,19.259766 H 8.7499804 c -1.88562,0 -3.2847733,-0.0036 -4.2890625,-0.138692 C 3.4566287,18.986047 2.8946861,18.752154 2.4511523,18.308613 2.0076454,17.865132 1.7756483,17.303147 1.640625,16.298848 1.5056017,15.294549 1.5,13.895385 1.5,12.009785 1.5,10.124165 1.5056,8.7250139 1.640625,7.7207226 1.7756482,6.7164314 2.0076241,6.1564226 2.4511523,5.7128906 2.6716339,5.4924109 2.92138,5.1932809 3.2401758,5.0627878 l 0.02376,-1.3789063 C 2.5471538,3.8875729 1.8912127,4.1498072 1.3906055,4.6504101 0.66256363,5.3784582 0.31021306,6.3472851 0.15234375,7.5215039 -0.00552556,8.6957226 0,10.124165 0,12.009785 c 0,1.8856 -0.00552543,3.315989 0.15234375,4.490215 0.15786918,1.174226 0.51019851,2.14114 1.23826175,2.86916 0.7280462,0.728058 1.6968729,1.080388 2.8710937,1.238262 1.1742209,0.157874 2.6026612,0.152343 4.4882812,0.152343 H 12.75 c 1.8856,0 3.314053,0.0055 4.488281,-0.152343 1.174228,-0.157874 2.143076,-0.510182 2.871094,-1.238262 0.72808,-0.728018 1.080389,-1.694932 1.238262,-2.86916 0.157874,-1.174228 0.152343,-2.604615 0.152343,-4.490215 0,-1.88562 0.0055,-3.3140603 -0.152343,-4.4882811 C 21.189764,6.3472831 20.837434,5.3784563 20.109375,4.6504101 19.601249,4.1422542 18.975805,3.8180317 18.245098,3.6148828 Z" /></svg>
