<?xml version="1.0" encoding="UTF-8" standalone="no"?>
<!-- Uploaded to: SVG Repo, www.svgrepo.com, Generator: SVG Repo Mixer Tools -->

<svg
   width="799.97766"
   height="800"
   viewBox="0 0 24.999302 25"
   fill="none"
   version="1.1"
   id="svg5"
   sodipodi:docname="Longevity.svg"
   xmlns:inkscape="http://www.inkscape.org/namespaces/inkscape"
   xmlns:sodipodi="http://sodipodi.sourceforge.net/DTD/sodipodi-0.dtd"
   xmlns="http://www.w3.org/2000/svg"
   xmlns:svg="http://www.w3.org/2000/svg">
  <defs
     id="defs5" />
  <sodipodi:namedview
     id="namedview5"
     pagecolor="#ffffff"
     bordercolor="#000000"
     borderopacity="0.25"
     inkscape:showpageshadow="2"
     inkscape:pageopacity="0.0"
     inkscape:pagecheckerboard="0"
     inkscape:deskcolor="#d1d1d1">
    <inkscape:page
       x="0"
       y="0"
       width="24.999302"
       height="25"
       id="page2"
       margin="0"
       bleed="0" />
  </sodipodi:namedview>
  <g
     id="g5"
     style="fill:#0062b8;fill-opacity:1;stroke:none;stroke-opacity:1">
    <path
       d="m 16.9977,1.2416 -0.5522,-0.552402 -2e-4,1.67e-4 z m 0,2.20894 -0.5524,0.55223 10e-5,9e-5 z m 4.5522,4.55223 0.5525,-0.55219 -10e-5,-1.3e-4 z m 2.21,-2.20894 0.5525,-0.55219 -2e-4,-1.9e-4 z M 19.2066,1.2416 19.7589,0.689218 v -2e-5 z M 18.1022,0.784211 V 0.00311472 Z M 16.4453,0.689365 C 16.006,1.1288 15.7592,1.72471 15.7592,2.34607 h 1.5622 c 0,-0.20712 0.0823,-0.40576 0.2287,-0.55224 z M 15.7592,2.34607 c 0,0.62136 0.2468,1.21727 0.6861,1.6567 L 17.5501,2.8983 C 17.4037,2.75183 17.3214,2.55319 17.3214,2.34607 Z M 16.4454,4.00286 20.9976,8.55509 22.1023,7.45045 17.55,2.89822 Z m 4.5521,4.5521 c 0.2175,0.21766 0.4758,0.39033 0.7601,0.50816 L 22.3558,7.61999 C 22.261,7.5807 22.1749,7.52314 22.1024,7.45058 Z m 0.7601,0.50816 c 0.2843,0.11784 0.589,0.17852 0.8968,0.1786 l 3e-4,-1.56219 C 22.5522,7.6795 22.4506,7.65927 22.3558,7.61999 Z m 0.8968,0.1786 c 0.3077,7e-5 0.6125,-0.06047 0.8968,-0.17817 L 22.9537,7.62013 c -0.0948,0.03924 -0.1964,0.05942 -0.299,0.0594 z m 0.8968,-0.17817 c 0.2844,-0.1177 0.5427,-0.29026 0.7604,-0.50781 L 23.2072,7.45084 C 23.1346,7.52337 23.0485,7.58089 22.9537,7.62013 Z M 24.3116,8.55574 C 24.5292,8.33818 24.7019,8.07989 24.8198,7.7956 L 23.3766,7.19743 C 23.3373,7.2922 23.2798,7.37831 23.2072,7.45084 Z M 24.8198,7.7956 c 0.1178,-0.28429 0.1785,-0.58901 0.1785,-0.89675 l -1.5621,-3.7e-4 c -10e-5,0.10259 -0.0203,0.20417 -0.0596,0.29895 z M 24.9983,6.89885 C 24.9984,6.59111 24.9379,6.28636 24.8202,6.00202 L 23.3768,6.5995 c 0.0392,0.0948 0.0594,0.19639 0.0594,0.29898 z M 24.8202,6.00202 C 24.7025,5.71768 24.5299,5.4593 24.3124,5.24164 l -1.1049,1.10438 c 0.0725,0.07255 0.13,0.15869 0.1693,0.25348 z M 24.3122,5.24145 19.7589,0.689218 18.6544,1.79398 23.2077,6.34621 Z M 19.7589,0.689198 C 19.3195,0.249899 18.7235,0.00311472 18.1022,0.00311472 V 1.56531 c 0.2071,0 0.4057,0.08226 0.5522,0.22869 z M 18.1022,0.00311472 c -0.6214,0 -1.2173,0.24678428 -1.6567,0.68608328 L 17.5499,1.794 c 0.1465,-0.14643 0.3452,-0.22869 0.5523,-0.22869 z"
       fill="#ffffffff"
       id="path1"
       style="fill:#0062b8;fill-opacity:1;stroke:none;stroke-opacity:1" />
    <path
       d="m 12.5781,1.24057 0.5522,0.5525 0.0011,-0.00114 z m 0,2.20998 0.5523,-0.55232 -10e-5,-1.7e-4 z m 8.9722,8.97215 -0.5523,0.5524 5e-4,5e-4 z m 2.209,-2.2131 -0.5524,0.5523 6e-4,6e-4 z m -8.9681,-8.96903 -0.5533,0.55136 10e-4,9.3e-4 z M 13.6847,0.781096 V 0 Z M 12.026,0.688076 C 11.8082,0.90569 11.6355,1.16408 11.5176,1.44848 l 1.4432,0.59805 C 13.0001,1.95173 13.0577,1.8656 13.1303,1.79307 Z M 11.5176,1.44848 c -0.1178,0.2844 -0.1785,0.58923 -0.1785,0.89708 h 1.5622 c 0,-0.10262 0.0202,-0.20423 0.0595,-0.29903 z m -0.1785,0.89708 c 0,0.30785 0.0607,0.61269 0.1785,0.89709 L 12.9608,2.64459 C 12.9215,2.54979 12.9013,2.44818 12.9013,2.34556 Z m 0.1785,0.89709 c 0.1179,0.28439 0.2906,0.54278 0.5084,0.7604 L 13.1303,2.89806 C 13.0577,2.82552 13.0001,2.73939 12.9608,2.64459 Z m 0.5082,0.76022 8.9722,8.97223 1.1046,-1.1047 -8.9722,-8.97217 z m 8.9727,8.97273 c 0.2179,0.2175 0.4765,0.3899 0.7611,0.5075 l 0.5965,-1.4438 C 22.2611,12 22.1748,11.9425 22.1021,11.8699 Z m 0.7611,0.5075 c 0.2846,0.1175 0.5895,0.1779 0.8974,0.1776 l -0.0015,-1.5622 c -0.1027,10e-5 -0.2045,-0.02 -0.2994,-0.0592 z m 0.8974,0.1776 c 0.3079,-3e-4 0.6127,-0.0612 0.897,-0.1793 l -0.5992,-1.4427 c -0.0948,0.0394 -0.1965,0.0597 -0.2993,0.0598 z m 0.897,-0.1793 c 0.2844,-0.1181 0.5427,-0.291 0.7602,-0.5089 l -1.1057,-1.1036 c -0.0726,0.0727 -0.1588,0.1304 -0.2537,0.1698 z m 0.7602,-0.5089 c 0.2175,-0.218 0.3899,-0.4766 0.5075,-0.7611 l -1.4439,-0.5965 c -0.0392,0.0949 -0.0967,0.1812 -0.1693,0.254 z m 0.5075,-0.7611 c 0.1175,-0.2846 0.1779,-0.5895 0.1776,-0.8974 l -1.5622,0.0015 c 10e-5,0.1027 -0.02,0.2044 -0.0593,0.2994 z M 24.9993,11.314 C 24.999,11.0061 24.9381,10.7013 24.82,10.4169 l -1.4427,0.5992 c 0.0394,0.0949 0.0597,0.1966 0.0598,0.2994 z M 24.82,10.4169 C 24.7019,10.1326 24.529,9.8743 24.311,9.6568 l -1.1035,1.1057 c 0.0727,0.0726 0.1304,0.1587 0.1698,0.2536 z M 24.3116,9.65735 15.3436,0.688285 14.2389,1.79286 23.2069,10.7619 Z M 15.3445,0.689212 C 15.1268,0.470755 14.8681,0.297422 14.5833,0.179151 L 13.9842,1.62191 c 0.095,0.03942 0.1812,0.0972 0.2537,0.17002 z M 14.5833,0.179151 C 14.2985,0.0608808 13.9931,0 13.6847,0 v 1.56219 c 0.1028,0 0.2046,0.0203 0.2995,0.05972 z M 13.6847,0 c -0.3084,0 -0.6138,0.0608808 -0.8986,0.179151 l 0.599,1.442759 c 0.095,-0.03942 0.1968,-0.05972 0.2996,-0.05972 z m -0.8986,0.179151 c -0.2849,0.118271 -0.5436,0.291604 -0.7613,0.510061 l 1.1066,1.102718 c 0.0726,-0.07282 0.1588,-0.1306 0.2537,-0.17002 z"
       fill="#ffffffff"
       id="path2"
       style="fill:#0062b8;fill-opacity:1;stroke:none;stroke-opacity:1" />
    <path
       d="m 1.24154,16.9979 0.5524,0.5522 9e-5,-10e-5 z m 2.20998,0 -0.5525,0.5521 1.8e-4,2e-4 z m 4.55223,4.5522 0.56191,-0.5427 -0.0096,-0.0096 z m -2.20894,2.2089 -0.55234,0.5525 0.0097,0.0094 z m -4.55327,-4.5522 -0.552406,0.5523 1.47e-4,10e-5 z M 0.784147,18.1023 H 0.00305116 Z M 1.79403,17.55 C 1.86657,17.4774 1.9527,17.4199 2.0475,17.3806 L 1.44944,15.9374 C 1.16504,16.0552 0.906653,16.228 0.689041,16.4457 Z M 2.0475,17.3806 c 0.0948,-0.0393 0.19641,-0.0595 0.29903,-0.0595 v -1.5622 c -0.30785,0 -0.61269,0.0606 -0.89709,0.1785 z m 0.29903,-0.0595 c 0.10262,0 0.20423,0.0202 0.29902,0.0595 L 3.24361,15.9374 C 2.95921,15.8195 2.65438,15.7589 2.34653,15.7589 Z m 0.29902,0.0595 c 0.0948,0.0393 0.18093,0.0968 0.25347,0.1694 L 4.00401,16.4457 C 3.7864,16.228 3.52801,16.0552 3.24361,15.9374 Z m 0.25365,0.1696 4.55223,4.5522 1.10463,-1.1046 -4.55222,-4.5522 z m 4.54271,4.5425 c 0.14228,0.1474 0.22101,0.3447 0.21923,0.5495 l 1.56214,0.0135 C 9.22862,22.0413 8.99243,21.4494 8.56558,21.0075 Z m 0.21923,0.5495 C 7.65937,22.847 7.57722,23.0429 7.4324,23.1877 l 1.10463,1.1046 C 8.9715,23.8579 9.21794,23.2701 9.22328,22.6557 Z M 7.4324,23.1877 c -0.14483,0.1448 -0.34073,0.227 -0.54553,0.2287 l 0.01357,1.5622 c 0.6144,-0.0054 1.20213,-0.2518 1.63659,-0.6863 z M 6.88687,23.4164 C 6.68206,23.4182 6.48476,23.3395 6.33744,23.1972 l -1.08527,1.1237 c 0.44195,0.4268 1.03387,0.663 1.64827,0.6577 z M 6.34706,23.2067 1.79379,18.6544 0.689281,19.7592 5.24255,24.3114 Z M 1.79394,18.6546 C 1.6475,18.5081 1.56524,18.3095 1.56524,18.1023 H 0.00305116 c 0,0.6214 0.24678484,1.2173 0.68608284,1.6568 z m -0.2287,-0.5523 c 0,-0.2071 0.08226,-0.4057 0.2287,-0.5522 L 0.689134,16.4456 C 0.249835,16.8851 0.00305116,17.481 0.00305116,18.1023 Z"
       fill="#ffffffff"
       id="path3"
       style="fill:#0062b8;fill-opacity:1;stroke:none;stroke-opacity:1" />
    <path
       d="m 1.24109,12.5779 0.5511,0.5536 0.00114,-0.0012 z m 2.20894,0 0.55232,-0.5523 -8e-5,-1e-4 z m 8.97217,8.9722 0.5527,-0.5519 -4e-4,-4e-4 z m -2.2131,2.21 0.5527,-0.5519 -4e-4,-4e-4 z M 1.24109,14.7921 1.79341,14.2397 1.79219,14.2385 Z M 0.781096,13.685 H 1.56219 Z M 1.79333,13.1303 c 0.14648,-0.1464 0.34512,-0.2287 0.55223,-0.2287 v -1.5622 c -0.62135,0 -1.21727,0.2468 -1.656701,0.6861 z m 0.55223,-0.2287 c 0.20712,0 0.40576,0.0823 0.55224,0.2287 L 4.00227,12.0255 C 3.56284,11.5862 2.96692,11.3394 2.34556,11.3394 Z m 0.55215,0.2286 8.97219,8.9722 1.1046,-1.1046 -8.97215,-8.9722 z m 8.97179,8.9718 c 0.1467,0.1469 0.229,0.3461 0.2289,0.5537 l 1.5622,0.0011 c 4e-4,-0.6219 -0.2462,-1.2186 -0.6857,-1.6586 z m 0.2289,0.5537 c -2e-4,0.2075 -0.0828,0.4066 -0.2297,0.5532 l 1.1039,1.1055 c 0.4401,-0.4395 0.6875,-1.0357 0.688,-1.6576 z m -0.2297,0.5532 c -0.1469,0.1467 -0.346,0.229 -0.5536,0.2289 L 11.314,25 c 0.6219,4e-4 1.2185,-0.2462 1.6586,-0.6856 z m -0.5536,0.2289 c -0.2076,-10e-5 -0.4066,-0.0827 -0.5533,-0.2296 L 9.65641,24.312 C 10.0959,24.7521 10.6921,24.9996 11.314,25 Z m -0.5537,-0.23 -8.96799,-8.9681 -1.104635,1.1047 8.968025,8.968 z M 1.79219,14.2385 C 1.71929,14.166 1.66145,14.0797 1.62198,13.9847 l -1.442616,0.5994 c 0.118409,0.285 0.291941,0.5438 0.510633,0.7615 z M 1.62198,13.9847 C 1.58251,13.8897 1.56219,13.7879 1.56219,13.685 H 0 c 0,0.3086 0.0609545,0.6141 0.179364,0.8991 z M 1.56219,13.685 c 0,-0.1029 0.02032,-0.2047 0.05979,-0.2997 L 0.179364,12.7859 C 0.0609545,13.0708 0,13.3764 0,13.685 Z M 1.62198,13.3853 C 1.66145,13.2903 1.71929,13.204 1.79219,13.1315 L 0.689997,12.0244 c -0.218692,0.2177 -0.392224,0.4765 -0.510633,0.7615 z"
       fill="#ffffffff"
       id="path4"
       style="fill:#0062b8;fill-opacity:1;stroke:none;stroke-opacity:1" />
    <path
       d="M 6.83154,15.9598 6.27922,15.4075 c -0.14648,0.1465 -0.22878,0.3452 -0.22878,0.5523 0,0.2072 0.0823,0.4059 0.22878,0.5524 z M 15.9595,6.83186 16.5118,6.27954 C 16.3654,6.13305 16.1667,6.05076 15.9595,6.05076 c -0.2071,0 -0.4058,0.08229 -0.5523,0.22878 z m 2.2093,2.20927 0.5523,0.55232 c 0.305,-0.30504 0.305,-0.7996 0,-1.10464 z M 9.04081,18.1691 8.48849,18.7214 c 0.14649,0.1465 0.34516,0.2288 0.55232,0.2288 0.20716,0 0.40584,-0.0823 0.55232,-0.2288 z M 7.38386,16.5122 16.5118,7.38418 15.4072,6.27954 6.27922,15.4075 Z M 15.4072,7.38418 17.6165,9.59345 18.7211,8.48881 16.5118,6.27954 Z M 17.6165,8.48881 8.48849,17.6168 9.59313,18.7214 18.7211,9.59345 Z M 9.59313,17.6168 7.38386,15.4075 6.27922,16.5122 8.48849,18.7214 Z"
       fill="#ffffffff"
       id="path5"
       style="fill:#0062b8;fill-opacity:1;stroke:none;stroke-opacity:1" />
  </g>
</svg>
