<?xml version="1.0" encoding="UTF-8" standalone="no"?>
<!-- Uploaded to: SVG Repo, www.svgrepo.com, Generator: SVG Repo Mixer Tools -->

<svg
   width="740.85913"
   height="769.63947"
   viewBox="0 0 22.225774 23.089184"
   fill="none"
   version="1.1"
   id="svg1"
   xml:space="preserve"
   xmlns="http://www.w3.org/2000/svg"
   xmlns:svg="http://www.w3.org/2000/svg"><defs
     id="defs1" /><g
     id="g2"
     style="display:none;fill:none;fill-opacity:1;stroke:none;stroke-opacity:1"
     transform="translate(-0.8174198,-1.25)"><path
       d="M 4,10.1433 C 4,5.64588 7.58172,2 12,2 c 4.4183,0 8,3.64588 8,8.1433 0,4.4622 -2.5533,9.6691 -6.5371,11.5311 -0.9286,0.4341 -1.9972,0.4341 -2.9258,0 C 6.55332,19.8124 4,14.6055 4,10.1433 Z"
       stroke="#1C274C"
       stroke-width="1.5"
       id="path1"
       style="fill:none;stroke:#5b5b5b;stroke-opacity:1" /><circle
       cx="12"
       cy="10"
       r="3"
       stroke="#1C274C"
       stroke-width="1.5"
       id="circle1"
       style="fill:none;stroke:#5b5b5b;stroke-opacity:1" /></g><g
     style="display:inline;fill:#0062b8;fill-opacity:1;stroke:none;stroke-opacity:1"
     id="g1"
     transform="matrix(1.1112887,0,0,1.1112887,-2.2225774,-1.3595015)"><path
       d="m 12,22.0003 c 5.5228,0 10,-2.0147 10,-4.5 0,-1.2666 -1.163,-2.4111 -3.0346,-3.2288 -1.1421,2.0958 -2.8837,3.9023 -5.0959,4.8477 -1.1891,0.5082 -2.5499,0.5082 -3.739,0 C 7.91828,18.1738 6.17666,16.3673 5.03458,14.2715 3.16295,15.0892 2,16.2337 2,17.5003 c 0,2.4853 4.47715,4.5 10,4.5 z"
       fill="#1c274c"
       id="path1-6"
       style="display:inline;fill:#0062b8;fill-opacity:1;stroke:none;stroke-opacity:1" /><path
       fill-rule="evenodd"
       clip-rule="evenodd"
       d="M 5,8.51464 C 5,4.9167 8.13401,2 12,2 c 3.866,0 7,2.9167 7,6.51464 0,3.56976 -2.2342,7.73526 -5.7199,9.22496 -0.8126,0.3472 -1.7476,0.3472 -2.5602,0 C 7.23416,16.2499 5,12.0844 5,8.51464 Z M 12,11 c 1.1046,0 2,-0.8954 2,-2 0,-1.10457 -0.8954,-2 -2,-2 -1.1046,0 -2,0.89543 -2,2 0,1.1046 0.8954,2 2,2 z"
       fill="#1c274c"
       id="path2"
       style="fill:#0062b8;fill-opacity:1;stroke:none;stroke-opacity:1" /></g></svg>
