<?xml version="1.0" encoding="UTF-8" standalone="no"?>
<!-- Uploaded to: SVG Repo, www.svgrepo.com, Generator: SVG Repo Mixer Tools -->

<svg
   width="684.44489"
   height="679.92999"
   viewBox="0 0 20.533347 20.3979"
   fill="none"
   version="1.1"
   id="svg1"
   xml:space="preserve"
   xmlns="http://www.w3.org/2000/svg"
   xmlns:svg="http://www.w3.org/2000/svg"><defs
     id="defs1" /><path
     d="m 12.850749,14.007053 -0.5288,-0.5318 v 0 z m 0.4555,-0.4528 0.5288,0.5318 v 0 z m 2.4166,-0.3168 -0.3582,0.6589 z m 1.9105,1.0386 -0.3582,0.6589 z m 0.5384,3.255 0.5288,0.5318 z m -1.4206,1.4124 -0.5288,-0.5318 z m -1.3248,0.6697 0.0696,0.7468 v 0 z m -9.8609404,-4.2385 0.52882,-0.5319 z m -4.81246995,-8.98099 -0.7487899,0.04255 v 0 z m 6.47460995,1.4517705 0.5287997,0.53184 v 0 z m 0.1567,-2.6539005 0.6003997,-0.44947 z m -1.26094,-1.6844 -0.6004,0.44947 v 0 z m -3.11181,-0.28425 0.52882,0.53184 v 0 z m -1.5696,1.56069 -0.52881995,-0.53184 v 0 z m 7.3712496,7.36168 0.528801,-0.5318 z m 4.5664008,2.3937 0.4555,-0.4529 -1.0577,-1.0637 -0.4554,0.4529 z m 1.9851,-0.6426 1.9105,1.0386 0.7164,-1.3178 -1.9105,-1.0386 z m 2.2783,3.1028 -1.4206,1.4125 1.0576,1.0637 1.4206,-1.4125 z m -2.2862,1.8673 c -1.4499,0.1351 -5.2011,0.0147 -9.2625204,-4.0237 l -1.05764,1.0637 c 4.4320606,4.4069 8.6503604,4.6221 10.4593604,4.4535 z m -9.2625204,-4.0237 c -3.87138,-3.8494 -4.51267,-7.0870495 -4.5925,-8.49165 l -1.49757985,0.08511 c 0.10046,1.7678305 0.8945299,5.35584 5.03243985,9.47024 z m 1.37532,-6.1802895 0.2867997,-0.28519 -1.0575997,-1.06367 -0.28681,0.28518 z m 0.5150997,-3.9204005 -1.2609497,-1.6844 -1.20079,0.89894 1.26094,1.68441 z m -5.5019697,-2.05102 -1.56959995,1.56069 1.05763995,1.06368 1.5696,-1.56069 z m 4.45807,5.4395805 c -0.52881,-0.53184 -0.52953,-0.53113 -0.53025,-0.53041 -2.4e-4,2.4e-4 -9.6e-4,9.7e-4 -0.00145,0.0015 -9.8e-4,9.9e-4 -0.00198,0.002 -0.00299,0.003 -0.00203,0.0021 -0.00413,0.0042 -0.00629,0.0065 -0.00433,0.0045 -0.00891,0.0094 -0.01373,0.01459 -0.00965,0.01047 -0.02024,0.02245 -0.03158,0.03598 -0.02267,0.02705 -0.04836,0.06036 -0.07536,0.10021 -0.05413,0.07989 -0.11311,0.18552 -0.16316,0.31836 -0.10213,0.27105 -0.15688,0.62836 -0.08824,1.07081 0.13424,0.8652795 0.73015,2.0082495 2.2566497,3.5260495 l 1.0576009,-1.0637 C 7.9134483,10.193103 7.5731486,9.3287035 7.5099486,8.9212035 c -0.0301,-0.19393 0.0011,-0.28938 0.0097,-0.31198 0.0052,-0.01398 0.0077,-0.01541 0.0013,-0.0059 -0.0032,0.0047 -0.0085,0.01198 -0.0168,0.02183 -0.0041,0.0049 -0.009,0.01051 -0.0147,0.01673 -0.0029,0.0031 -0.0059,0.0064 -0.0093,0.0098 -0.0016,0.0017 -0.0033,0.0035 -0.0051,0.0053 -9e-4,9e-4 -0.0018,0.0018 -0.0027,0.0027 -4e-4,4.6e-4 -0.0011,0.0012 -0.0014,0.0014 -7e-4,7e-4 -0.0014,0.0014 -0.5302,-0.53044 z m 1.3435997,4.5465295 c 1.5270009,1.5183 2.6753007,2.1092 3.5420007,2.2422 0.4429,0.0679 0.8,0.0137 1.0709,-0.0872 0.1328,-0.0495 0.2386,-0.1078 0.3186,-0.1614 0.04,-0.0268 0.0734,-0.0523 0.1005,-0.0748 0.0136,-0.0112 0.0256,-0.0217 0.0361,-0.0313 0.0053,-0.0048 0.0102,-0.0093 0.0147,-0.0136 0.0023,-0.0022 0.0044,-0.0043 0.0065,-0.0063 10e-4,-10e-4 0.002,-0.002 0.003,-0.003 5e-4,-5e-4 0.0013,-0.0012 0.0015,-0.0014 7e-4,-7e-4 0.0014,-0.0014 -0.5274,-0.5333 -0.5288,-0.5318 -0.5281,-0.5325 -0.5274,-0.5332 2e-4,-2e-4 9e-4,-9e-4 0.0014,-0.0014 9e-4,-9e-4 0.0018,-0.0018 0.0027,-0.0027 0.0019,-0.0017 0.0036,-0.0034 0.0053,-0.0051 0.0035,-0.0033 0.0068,-0.0063 0.0099,-0.0092 0.0062,-0.0056 0.0118,-0.0105 0.0168,-0.0145 0.0098,-0.0082 0.0171,-0.0134 0.0216,-0.0165 0.0093,-0.0062 0.0074,-0.0034 -0.0074,0.0021 -0.0245,0.0091 -0.1226,0.0404 -0.3198,0.0101 -0.4133,-0.0633 -1.2838,-0.4033 -2.7118998,-1.8232 z M 6.7236986,3.057663 c -1.01931,-1.36159 -3.02369,-1.57704 -4.24102,-0.36662 l 1.05764,1.06368 c 0.53168,-0.52867 1.47596,-0.47486 1.98259,0.20188 z m -5.22197,3.29344 c -0.01967,-0.34611 0.13907,-0.70765 0.46899,-1.03569 L 0.91307865,4.251733 c -0.53732,0.53427 -0.9597399,1.29057 -0.9089299,2.18448 z m 14.7206204,12.06055 c -0.2748,0.2733 -0.5694,0.4272 -0.8656,0.4548 l 0.1392,1.4935 c 0.7346,-0.0685 1.3365,-0.4396 1.784,-0.8846 z M 7.7563483,8.3772735 c 0.9844999,-0.97892 1.0576999,-2.5273205 0.2283,-3.6352105 l -1.2007997,0.89894 c 0.4035,0.53898 0.3435,1.24643 -0.0851,1.6726005 z m 9.5188007,6.5576795 c 0.8178,0.4446 0.9452,1.49 0.3678,2.0642 l 1.0576,1.0637 c 1.3403,-1.3327 0.927,-3.5564 -0.709,-4.4457 z m -3.4401,-0.8489 c 0.384,-0.3818 1.0021,-0.4764 1.5296,-0.1897 l 0.7164,-1.3178 c -1.0836,-0.5891 -2.4284,-0.4264 -3.3037,0.4438 z"
     fill="#1C274C"
     id="path1"
     style="display:inline;fill:#5b5b5b;fill-opacity:1" /><g
     style="display:none;fill:#5b5b5b;fill-opacity:1"
     id="g1"
     transform="translate(-2.2137636,-1.2499974)"><path
       d="m 15.5562,14.5477 -0.4555,0.4795 c 0,0 -1.0826,1.1398 -4.0376,-1.9713 C 8.10812,9.94484 9.1907,8.80507 9.1907,8.80507 L 9.47752,8.50311 C 10.1841,7.75924 10.2507,6.56497 9.63424,5.6931 L 8.37326,3.90961 C 7.61028,2.8305 6.13596,2.68795 5.26145,3.60864 l -1.5696,1.6525 c -0.43362,0.45652 -0.7242,1.04831 -0.68896,1.7048 0.09015,1.67952 0.80782,5.29306 4.81247,9.50926 4.24674,4.471 8.23144,4.6487 9.86094,4.4879 0.5154,-0.0509 0.9636,-0.3288 1.3248,-0.7091 l 1.4206,-1.4956 c 0.9589,-1.0095 0.6885,-2.7402 -0.5384,-3.4464 l -1.9105,-1.0997 c -0.8056,-0.4637 -1.787,-0.3275 -2.4166,0.3354 z"
       fill="#1c274c"
       id="path1-3"
       style="fill:#5b5b5b;fill-opacity:1" /><path
       d="m 13.2595,1.87983 c 0.0662,-0.40889 0.4527,-0.68626 0.8616,-0.62007 0.0253,0.00485 0.1068,0.02007 0.1494,0.02957 0.0854,0.01901 0.2044,0.04826 0.3528,0.09149 0.2968,0.08644 0.7114,0.22885 1.209,0.45698 0.9963,0.45676 2.3221,1.25576 3.6979,2.63156 1.3758,1.3758 2.1748,2.70161 2.6315,3.69789 0.2282,0.49762 0.3706,0.91222 0.457,1.209 0.0432,0.14841 0.0725,0.26744 0.0915,0.35276 0.0095,0.04267 0.0165,0.07693 0.0213,0.10224 l 0.0058,0.0312 c 0.0661,0.40885 -0.2087,0.81145 -0.6176,0.87765 -0.4077,0.066 -0.7918,-0.2101 -0.8596,-0.617 -0.0021,-0.011 -0.0079,-0.0403 -0.014,-0.068 C 21.2337,9.9997 21.2124,9.91188 21.1786,9.79572 21.1109,9.56339 20.9934,9.21806 20.7982,8.79238 20.4084,7.94207 19.7074,6.76789 18.4695,5.53002 17.2317,4.29216 16.0575,3.59117 15.2072,3.20134 14.7815,3.00618 14.4362,2.88865 14.2038,2.82097 14.0877,2.78714 13.9417,2.75363 13.8863,2.7413 13.4793,2.67347 13.1935,2.28755 13.2595,1.87983 Z"
       fill="#1c274c"
       id="path2"
       style="fill:#5b5b5b;fill-opacity:1" /><path
       fill-rule="evenodd"
       clip-rule="evenodd"
       d="m 13.4857,5.3293 c 0.1138,-0.39828 0.5289,-0.6289 0.9272,-0.51511 l -0.206,0.72115 c 0.206,-0.72115 0.206,-0.72115 0.206,-0.72115 l 0.0015,4.2e-4 0.0015,4.4e-4 0.0033,9.7e-4 0.0078,0.00232 0.0198,0.00616 c 0.015,0.00482 0.0339,0.0111 0.0563,0.01907 0.0449,0.01594 0.1043,0.0386 0.1771,0.0698 0.1457,0.06244 0.3447,0.15886 0.5893,0.30357 0.4894,0.28968 1.1576,0.77086 1.9426,1.55583 0.785,0.78498 1.2661,1.45316 1.5558,1.94263 0.1447,0.24451 0.2411,0.44357 0.3036,0.58926 0.0312,0.0728 0.0539,0.13216 0.0698,0.17707 0.008,0.02245 0.0142,0.04128 0.0191,0.05636 l 0.0061,0.01979 0.0023,0.00775 10e-4,0.00333 4e-4,0.00154 c 0,0 5e-4,0.00144 -0.7207,0.20748 l 0.7212,-0.20604 c 0.1138,0.39827 -0.1169,0.81336 -0.5151,0.92716 -0.3949,0.1128 -0.8064,-0.1129 -0.9243,-0.50497 L 17.7276,9.98335 C 17.7223,9.96832 17.7113,9.93874 17.6928,9.89554 17.6558,9.8092 17.5887,9.66797 17.4771,9.47938 17.2541,9.10264 16.8514,8.53339 16.1514,7.83343 15.4515,7.13348 14.8822,6.73078 14.5055,6.50781 14.3169,6.39619 14.1757,6.32909 14.0893,6.29209 14.0461,6.27358 14.0165,6.26254 14.0015,6.25721 L 13.9907,6.25352 C 13.5987,6.13564 13.3729,5.72419 13.4857,5.3293 Z"
       fill="#1c274c"
       id="path3"
       style="fill:#5b5b5b;fill-opacity:1" /></g></svg>
